M48
;DRILL file {KiCad 4.0.4+dfsg1-stable} date Fri Oct 28 14:47:07 2016
;FORMAT={-:-/ absolute / metric / decimal}
FMAT,2
METRIC,TZ
T1C0.701
T2C0.762
T3C0.800
T4C1.001
T5C1.200
T6C1.501
T7C1.999
T8C3.200
%
G90
G05
M71
T1
X109.329Y-55.589
X109.329Y-59.145
X119.489Y-55.589
X119.489Y-59.145
T2
X43.334Y-94.2
X43.334Y-111.44
X44.812Y-67.276
X44.812Y-69.816
X46.336Y-74.388
X46.336Y-89.628
X47.352Y-67.276
X47.352Y-69.816
X48.876Y-74.388
X48.876Y-89.628
X49.892Y-67.276
X49.892Y-69.816
X51.416Y-74.388
X51.416Y-89.628
X52.432Y-67.276
X52.432Y-69.816
X53.956Y-74.388
X53.956Y-89.628
X56.496Y-74.388
X56.496Y-89.628
X59.036Y-74.388
X59.036Y-89.628
X61.576Y-74.388
X61.576Y-89.628
X64.116Y-74.388
X64.116Y-89.628
X66.656Y-74.388
X66.656Y-89.628
X69.196Y-74.388
X69.196Y-89.628
X71.736Y-74.388
X71.736Y-89.628
X74.276Y-74.388
X74.276Y-89.628
X75.62Y-43.54
X76.816Y-74.388
X76.816Y-89.628
X78.16Y-43.54
X79.356Y-74.388
X79.356Y-89.628
X80.7Y-43.54
X81.896Y-74.388
X81.896Y-89.628
X83.24Y-43.54
X83.374Y-94.2
X83.374Y-111.44
X93.834Y-47.21
X93.834Y-49.75
X93.834Y-52.29
X93.834Y-54.83
X94.36Y-101.29
X94.36Y-108.11
X102.724Y-47.21
X102.724Y-49.75
X102.724Y-52.29
X102.724Y-54.83
X124.84Y-101.29
X124.84Y-108.11
T3
X60.052Y-63.212
X62.052Y-63.212
X65.164Y-56.608
X67.164Y-56.608
X69.164Y-56.608
X74.Y-62.
X74.Y-65.8
X74.1Y-53.5
X76.1Y-53.5
X90.104Y-86.834
X90.564Y-72.102
X92.564Y-72.102
X94.564Y-72.102
X95.104Y-86.834
X115.Y-49.
X118.8Y-49.
T4
X82.658Y-50.498
X82.658Y-65.498
X85.946Y-62.196
X85.96Y-58.894
X100.946Y-62.196
X100.96Y-58.894
X123.298Y-44.924
X123.298Y-59.924
T5
X101.092Y-73.7
X101.092Y-76.2
X101.092Y-78.74
X108.Y-44.96
X108.Y-47.46
X108.Y-50.
T6
X108.057Y-63.977
X123.297Y-63.977
T7
X111.868Y-41.114
X122.028Y-41.114
T8
X34.5Y-77.2
X117.Y-32.4
T2
X118.833Y-67.992G85X117.095Y-67.992
G05
X118.833Y-94.392G85X117.095Y-94.392
G05
T0
M30
