G04 #@! TF.FileFunction,Copper,L1,Top,Signal*
%FSLAX46Y46*%
G04 Gerber Fmt 4.6, Leading zero omitted, Abs format (unit mm)*
G04 Created by KiCad (PCBNEW 4.0.4+dfsg1-stable) date Fri Oct 28 14:45:57 2016*
%MOMM*%
%LPD*%
G01*
G04 APERTURE LIST*
%ADD10C,0.200000*%
%ADD11C,1.524000*%
%ADD12R,1.300000X1.300000*%
%ADD13C,1.300000*%
%ADD14C,2.540000*%
%ADD15R,2.540000X2.540000*%
%ADD16C,1.699260*%
%ADD17R,1.699260X1.699260*%
%ADD18C,4.000500*%
%ADD19C,1.998980*%
%ADD20R,2.000000X2.000000*%
%ADD21C,2.000000*%
%ADD22C,4.064000*%
%ADD23O,1.400000X2.500000*%
%ADD24O,3.500000X1.524000*%
%ADD25C,4.000000*%
%ADD26C,2.000000*%
%ADD27C,0.500000*%
%ADD28C,1.000000*%
%ADD29C,0.750000*%
%ADD30C,0.254000*%
G04 APERTURE END LIST*
D10*
D11*
X44812000Y-69816000D03*
X44812000Y-67276000D03*
X47352000Y-69816000D03*
X47352000Y-67276000D03*
X49892000Y-69816000D03*
X49892000Y-67276000D03*
X52432000Y-69816000D03*
X52432000Y-67276000D03*
D12*
X60052000Y-63212000D03*
D13*
X62052000Y-63212000D03*
D12*
X74100000Y-53500000D03*
D13*
X76100000Y-53500000D03*
D12*
X115000000Y-49000000D03*
D13*
X118800000Y-49000000D03*
D12*
X95104000Y-86834000D03*
D13*
X90104000Y-86834000D03*
D14*
X108056780Y-63976960D03*
D15*
X123296780Y-63976960D03*
D16*
X119488520Y-59145460D03*
D17*
X109328520Y-59145460D03*
D16*
X119488520Y-55589460D03*
D17*
X109328520Y-55589460D03*
D11*
X93834000Y-47210000D03*
X93834000Y-49750000D03*
X93834000Y-52290000D03*
X93834000Y-54830000D03*
X102724000Y-54830000D03*
X102724000Y-52290000D03*
X102724000Y-49750000D03*
X102724000Y-47210000D03*
D18*
X111868000Y-41114000D03*
X122028000Y-41114000D03*
D19*
X123298000Y-44924000D03*
X123298000Y-59924000D03*
X82658000Y-65498000D03*
X82658000Y-50498000D03*
X85960000Y-58894000D03*
X100960000Y-58894000D03*
X100946000Y-62196000D03*
X85946000Y-62196000D03*
D11*
X83240000Y-43540000D03*
X80700000Y-43540000D03*
X78160000Y-43540000D03*
X75620000Y-43540000D03*
X46336000Y-89628000D03*
X48876000Y-89628000D03*
X51416000Y-89628000D03*
X53956000Y-89628000D03*
X56496000Y-89628000D03*
X59036000Y-89628000D03*
X61576000Y-89628000D03*
X64116000Y-89628000D03*
X66656000Y-89628000D03*
X69196000Y-89628000D03*
X71736000Y-89628000D03*
X74276000Y-89628000D03*
X76816000Y-89628000D03*
X79356000Y-89628000D03*
X81896000Y-89628000D03*
X81896000Y-74388000D03*
X79356000Y-74388000D03*
X76816000Y-74388000D03*
X74276000Y-74388000D03*
X71736000Y-74388000D03*
X69196000Y-74388000D03*
X66656000Y-74388000D03*
X64116000Y-74388000D03*
X61576000Y-74388000D03*
X59036000Y-74388000D03*
X56496000Y-74388000D03*
X53956000Y-74388000D03*
X51416000Y-74388000D03*
X48876000Y-74388000D03*
X46336000Y-74388000D03*
D12*
X74000000Y-62000000D03*
D13*
X74000000Y-65800000D03*
D20*
X101092000Y-78740000D03*
D21*
X101092000Y-76200000D03*
X101092000Y-73700000D03*
D20*
X108000000Y-50000000D03*
D21*
X108000000Y-47460000D03*
X108000000Y-44960000D03*
D22*
X34500000Y-77200000D03*
X117000000Y-32400000D03*
D23*
X67164000Y-56608000D03*
X69164000Y-56608000D03*
X65164000Y-56608000D03*
X92564000Y-72102000D03*
X90564000Y-72102000D03*
X94564000Y-72102000D03*
D24*
X117964000Y-67992000D03*
X117964000Y-94392000D03*
D11*
X83374000Y-111440000D03*
X83374000Y-94200000D03*
X43334000Y-94200000D03*
X43334000Y-111440000D03*
X124840000Y-101290000D03*
X124840000Y-108110000D03*
X94360000Y-108110000D03*
X94360000Y-101290000D03*
D25*
X124840000Y-100890000D02*
X124840000Y-99298000D01*
X117964000Y-68992000D02*
X117964000Y-67780940D01*
X124822000Y-75658000D02*
X124822000Y-99280000D01*
X118156000Y-68992000D02*
X124822000Y-75658000D01*
X117964000Y-68992000D02*
X118156000Y-68992000D01*
X124840000Y-99298000D02*
X124822000Y-99280000D01*
X117964000Y-67780940D02*
X109328520Y-59145460D01*
D26*
X60052000Y-63212000D02*
X45000000Y-63000000D01*
X45000000Y-63000000D02*
X44812000Y-67276000D01*
D27*
X83420000Y-43400000D02*
X83166000Y-43654000D01*
D26*
X123298000Y-59924000D02*
X123298000Y-63975740D01*
X123298000Y-63975740D02*
X123296780Y-63976960D01*
X119488520Y-59145460D02*
X122519460Y-59145460D01*
X122519460Y-59145460D02*
X123298000Y-59924000D01*
X119488520Y-55589460D02*
X119488520Y-59145460D01*
X93834000Y-47210000D02*
X91294000Y-47210000D01*
X88500000Y-65498000D02*
X82658000Y-65498000D01*
X90278000Y-63720000D02*
X88500000Y-65498000D01*
X90278000Y-48226000D02*
X90278000Y-63720000D01*
X91294000Y-47210000D02*
X90278000Y-48226000D01*
X122028000Y-41114000D02*
X122028000Y-43654000D01*
X122028000Y-43654000D02*
X123298000Y-44924000D01*
X92564000Y-72102000D02*
X92564000Y-68038000D01*
X98406000Y-62196000D02*
X100946000Y-62196000D01*
X92564000Y-68038000D02*
X98406000Y-62196000D01*
D28*
X90564000Y-72102000D02*
X89516000Y-72102000D01*
X76814125Y-85564118D02*
X76816000Y-89628000D01*
X79356000Y-82262000D02*
X76814125Y-85564118D01*
X89516000Y-72102000D02*
X79356000Y-82262000D01*
D29*
X80700000Y-43540000D02*
X80700000Y-48100000D01*
X78958571Y-67820189D02*
X77700000Y-69300000D01*
X79099329Y-66108167D02*
X78958571Y-67820189D01*
X79100000Y-65500000D02*
X79099329Y-66108167D01*
X80200000Y-48600000D02*
X79100000Y-65500000D01*
X80700000Y-48100000D02*
X80200000Y-48600000D01*
X66656000Y-74388000D02*
X66656000Y-73944000D01*
X66656000Y-73944000D02*
X68700000Y-71900000D01*
X68700000Y-71900000D02*
X77750000Y-69250000D01*
X78160000Y-43540000D02*
X78160000Y-49960000D01*
X78300000Y-50300000D02*
X78145122Y-50093902D01*
X78157993Y-50157993D02*
X78300000Y-50300000D01*
X78157993Y-50057993D02*
X78157993Y-50157993D01*
X78160000Y-49960000D02*
X78157993Y-50057993D01*
X64412000Y-74388000D02*
X69200000Y-69600000D01*
X69200000Y-69600000D02*
X76400000Y-67800000D01*
X78145122Y-50093902D02*
X76400000Y-67800000D01*
D27*
X64116000Y-74388000D02*
X64412000Y-74388000D01*
D29*
X49892000Y-69816000D02*
X49892000Y-70108000D01*
X49892000Y-70108000D02*
X49400000Y-70600000D01*
X46336000Y-89628000D02*
X46336000Y-76928000D01*
X46336000Y-76928000D02*
X44304000Y-74896000D01*
X44304000Y-74896000D02*
X44304000Y-71848000D01*
X44304000Y-71848000D02*
X47352000Y-71848000D01*
X47352000Y-71848000D02*
X49400000Y-70600000D01*
D26*
X81896000Y-89628000D02*
X81896000Y-91078000D01*
D25*
X63312000Y-111440000D02*
X78740000Y-96012000D01*
X63312000Y-111440000D02*
X43334000Y-111440000D01*
D26*
X78740000Y-94234000D02*
X78740000Y-96012000D01*
X81896000Y-91078000D02*
X78740000Y-94234000D01*
D29*
X47352000Y-67276000D02*
X49384000Y-65244000D01*
X49384000Y-65244000D02*
X53956000Y-65244000D01*
X53956000Y-65244000D02*
X59036000Y-70324000D01*
X59036000Y-70324000D02*
X59036000Y-74388000D01*
D27*
X52432000Y-69816000D02*
X51924000Y-69816000D01*
D29*
X51924000Y-69816000D02*
X51600000Y-72300000D01*
X48400000Y-72700000D02*
X46336000Y-74388000D01*
X51600000Y-72300000D02*
X48400000Y-72700000D01*
D30*
G36*
X123691856Y-30590200D02*
X123782019Y-30807871D01*
X123797871Y-30846141D01*
X124903411Y-32500700D01*
X125024154Y-32621442D01*
X125099300Y-32696588D01*
X126753859Y-33802129D01*
X126786758Y-33815756D01*
X127009800Y-33908144D01*
X127424543Y-33990641D01*
X127327996Y-75009451D01*
X127256423Y-74649629D01*
X127014315Y-74287289D01*
X126685227Y-73794774D01*
X120581025Y-67690573D01*
X120398423Y-66772569D01*
X119827226Y-65917714D01*
X111191746Y-57282234D01*
X110626973Y-56904864D01*
X110629591Y-56903180D01*
X110774581Y-56690980D01*
X110825590Y-56439090D01*
X110825590Y-55589460D01*
X117853520Y-55589460D01*
X117853520Y-59145460D01*
X117977977Y-59771147D01*
X118332400Y-60301580D01*
X118862833Y-60656003D01*
X119488520Y-60780460D01*
X121663000Y-60780460D01*
X121663000Y-62186462D01*
X121575339Y-62242870D01*
X121430349Y-62455070D01*
X121379340Y-62706960D01*
X121379340Y-65246960D01*
X121423618Y-65482277D01*
X121562690Y-65698401D01*
X121774890Y-65843391D01*
X122026780Y-65894400D01*
X124566780Y-65894400D01*
X124802097Y-65850122D01*
X125018221Y-65711050D01*
X125163211Y-65498850D01*
X125214220Y-65246960D01*
X125214220Y-62706960D01*
X125169942Y-62471643D01*
X125030870Y-62255519D01*
X124933000Y-62188647D01*
X124933000Y-59924005D01*
X124933001Y-59924000D01*
X124932493Y-59921449D01*
X124932774Y-59600306D01*
X124809054Y-59300880D01*
X124808543Y-59298312D01*
X124807101Y-59296154D01*
X124684462Y-58999345D01*
X124455577Y-58770060D01*
X124454120Y-58767880D01*
X124454117Y-58767878D01*
X123675580Y-57989340D01*
X123145148Y-57634917D01*
X122519460Y-57510459D01*
X122519455Y-57510460D01*
X121123520Y-57510460D01*
X121123520Y-55589460D01*
X120999063Y-54963773D01*
X120644640Y-54433340D01*
X120114207Y-54078917D01*
X119488520Y-53954460D01*
X118862833Y-54078917D01*
X118332400Y-54433340D01*
X117977977Y-54963773D01*
X117853520Y-55589460D01*
X110825590Y-55589460D01*
X110825590Y-54739830D01*
X110781312Y-54504513D01*
X110642240Y-54288389D01*
X110430040Y-54143399D01*
X110178150Y-54092390D01*
X108478890Y-54092390D01*
X108243573Y-54136668D01*
X108027449Y-54275740D01*
X107882459Y-54487940D01*
X107831450Y-54739830D01*
X107831450Y-56439090D01*
X107875728Y-56674407D01*
X108014800Y-56890531D01*
X108032954Y-56902935D01*
X107465294Y-57282234D01*
X106894097Y-58137089D01*
X106693521Y-59145460D01*
X106894097Y-60153831D01*
X107465294Y-61008686D01*
X108602526Y-62145918D01*
X108385744Y-62062699D01*
X107628148Y-62082524D01*
X107020300Y-62334303D01*
X106888608Y-62629183D01*
X108056780Y-63797355D01*
X108070923Y-63783213D01*
X108250528Y-63962818D01*
X108236385Y-63976960D01*
X109404557Y-65145132D01*
X109699437Y-65013440D01*
X109971041Y-64305924D01*
X109951216Y-63548328D01*
X109913230Y-63456622D01*
X115329000Y-68872392D01*
X115329000Y-68992000D01*
X115529577Y-70000371D01*
X116100774Y-70855226D01*
X116679401Y-71241853D01*
X122187000Y-76749453D01*
X122187000Y-99280000D01*
X122205000Y-99370492D01*
X122205000Y-100890000D01*
X122405577Y-101898371D01*
X122976774Y-102753226D01*
X123831629Y-103324423D01*
X124840000Y-103525000D01*
X125848371Y-103324423D01*
X126703226Y-102753226D01*
X127264673Y-101912963D01*
X127239141Y-112760475D01*
X127033786Y-113055137D01*
X125595434Y-113975947D01*
X123775164Y-114301061D01*
X123645027Y-114352000D01*
X36255259Y-114352000D01*
X36138514Y-114303642D01*
X34363610Y-113950592D01*
X32976349Y-113023654D01*
X32049408Y-111636390D01*
X32010344Y-111440000D01*
X40699000Y-111440000D01*
X40899577Y-112448371D01*
X41470774Y-113303226D01*
X42325629Y-113874423D01*
X43334000Y-114075000D01*
X63312000Y-114075000D01*
X64320371Y-113874423D01*
X65175226Y-113303226D01*
X66761791Y-111716661D01*
X81976758Y-111716661D01*
X82188990Y-112230303D01*
X82581630Y-112623629D01*
X83094900Y-112836757D01*
X83650661Y-112837242D01*
X84164303Y-112625010D01*
X84557629Y-112232370D01*
X84770757Y-111719100D01*
X84771242Y-111163339D01*
X84559010Y-110649697D01*
X84166370Y-110256371D01*
X83653100Y-110043243D01*
X83097339Y-110042758D01*
X82583697Y-110254990D01*
X82190371Y-110647630D01*
X81977243Y-111160900D01*
X81976758Y-111716661D01*
X66761791Y-111716661D01*
X69388239Y-109090213D01*
X93559392Y-109090213D01*
X93628857Y-109332397D01*
X94152302Y-109519144D01*
X94707368Y-109491362D01*
X95091143Y-109332397D01*
X95160608Y-109090213D01*
X124039392Y-109090213D01*
X124108857Y-109332397D01*
X124632302Y-109519144D01*
X125187368Y-109491362D01*
X125571143Y-109332397D01*
X125640608Y-109090213D01*
X124840000Y-108289605D01*
X124039392Y-109090213D01*
X95160608Y-109090213D01*
X94360000Y-108289605D01*
X93559392Y-109090213D01*
X69388239Y-109090213D01*
X70576150Y-107902302D01*
X92950856Y-107902302D01*
X92978638Y-108457368D01*
X93137603Y-108841143D01*
X93379787Y-108910608D01*
X94180395Y-108110000D01*
X94539605Y-108110000D01*
X95340213Y-108910608D01*
X95582397Y-108841143D01*
X95769144Y-108317698D01*
X95748353Y-107902302D01*
X123430856Y-107902302D01*
X123458638Y-108457368D01*
X123617603Y-108841143D01*
X123859787Y-108910608D01*
X124660395Y-108110000D01*
X125019605Y-108110000D01*
X125820213Y-108910608D01*
X126062397Y-108841143D01*
X126249144Y-108317698D01*
X126221362Y-107762632D01*
X126062397Y-107378857D01*
X125820213Y-107309392D01*
X125019605Y-108110000D01*
X124660395Y-108110000D01*
X123859787Y-107309392D01*
X123617603Y-107378857D01*
X123430856Y-107902302D01*
X95748353Y-107902302D01*
X95741362Y-107762632D01*
X95582397Y-107378857D01*
X95340213Y-107309392D01*
X94539605Y-108110000D01*
X94180395Y-108110000D01*
X93379787Y-107309392D01*
X93137603Y-107378857D01*
X92950856Y-107902302D01*
X70576150Y-107902302D01*
X71348665Y-107129787D01*
X93559392Y-107129787D01*
X94360000Y-107930395D01*
X95160608Y-107129787D01*
X124039392Y-107129787D01*
X124840000Y-107930395D01*
X125640608Y-107129787D01*
X125571143Y-106887603D01*
X125047698Y-106700856D01*
X124492632Y-106728638D01*
X124108857Y-106887603D01*
X124039392Y-107129787D01*
X95160608Y-107129787D01*
X95091143Y-106887603D01*
X94567698Y-106700856D01*
X94012632Y-106728638D01*
X93628857Y-106887603D01*
X93559392Y-107129787D01*
X71348665Y-107129787D01*
X76911791Y-101566661D01*
X92962758Y-101566661D01*
X93174990Y-102080303D01*
X93567630Y-102473629D01*
X94080900Y-102686757D01*
X94636661Y-102687242D01*
X95150303Y-102475010D01*
X95543629Y-102082370D01*
X95756757Y-101569100D01*
X95757242Y-101013339D01*
X95545010Y-100499697D01*
X95152370Y-100106371D01*
X94639100Y-99893243D01*
X94083339Y-99892758D01*
X93569697Y-100104990D01*
X93176371Y-100497630D01*
X92963243Y-101010900D01*
X92962758Y-101566661D01*
X76911791Y-101566661D01*
X80603226Y-97875226D01*
X81174423Y-97020371D01*
X81375000Y-96012000D01*
X81209548Y-95180213D01*
X82573392Y-95180213D01*
X82642857Y-95422397D01*
X83166302Y-95609144D01*
X83721368Y-95581362D01*
X84105143Y-95422397D01*
X84174608Y-95180213D01*
X83374000Y-94379605D01*
X82573392Y-95180213D01*
X81209548Y-95180213D01*
X81174423Y-95003629D01*
X80817213Y-94469027D01*
X81293938Y-93992302D01*
X81964856Y-93992302D01*
X81992638Y-94547368D01*
X82151603Y-94931143D01*
X82393787Y-95000608D01*
X83194395Y-94200000D01*
X83553605Y-94200000D01*
X84354213Y-95000608D01*
X84596397Y-94931143D01*
X84666349Y-94735070D01*
X115621780Y-94735070D01*
X115636740Y-94809277D01*
X115898370Y-95290026D01*
X116324059Y-95634059D01*
X116849000Y-95789000D01*
X117837000Y-95789000D01*
X117837000Y-94519000D01*
X118091000Y-94519000D01*
X118091000Y-95789000D01*
X119079000Y-95789000D01*
X119603941Y-95634059D01*
X120029630Y-95290026D01*
X120291260Y-94809277D01*
X120306220Y-94735070D01*
X120183720Y-94519000D01*
X118091000Y-94519000D01*
X117837000Y-94519000D01*
X115744280Y-94519000D01*
X115621780Y-94735070D01*
X84666349Y-94735070D01*
X84783144Y-94407698D01*
X84765188Y-94048930D01*
X115621780Y-94048930D01*
X115744280Y-94265000D01*
X117837000Y-94265000D01*
X117837000Y-92995000D01*
X118091000Y-92995000D01*
X118091000Y-94265000D01*
X120183720Y-94265000D01*
X120306220Y-94048930D01*
X120291260Y-93974723D01*
X120029630Y-93493974D01*
X119603941Y-93149941D01*
X119079000Y-92995000D01*
X118091000Y-92995000D01*
X117837000Y-92995000D01*
X116849000Y-92995000D01*
X116324059Y-93149941D01*
X115898370Y-93493974D01*
X115636740Y-93974723D01*
X115621780Y-94048930D01*
X84765188Y-94048930D01*
X84755362Y-93852632D01*
X84596397Y-93468857D01*
X84354213Y-93399392D01*
X83553605Y-94200000D01*
X83194395Y-94200000D01*
X82393787Y-93399392D01*
X82151603Y-93468857D01*
X81964856Y-93992302D01*
X81293938Y-93992302D01*
X82066453Y-93219787D01*
X82573392Y-93219787D01*
X83374000Y-94020395D01*
X84174608Y-93219787D01*
X84105143Y-92977603D01*
X83581698Y-92790856D01*
X83026632Y-92818638D01*
X82642857Y-92977603D01*
X82573392Y-93219787D01*
X82066453Y-93219787D01*
X83052120Y-92234120D01*
X83406543Y-91703688D01*
X83531001Y-91078000D01*
X83531000Y-91077995D01*
X83531000Y-89628000D01*
X83406543Y-89002313D01*
X83052120Y-88471880D01*
X82521687Y-88117457D01*
X81896000Y-87993000D01*
X81270313Y-88117457D01*
X80739880Y-88471880D01*
X80475618Y-88867377D01*
X80336213Y-88827392D01*
X79535605Y-89628000D01*
X79549748Y-89642143D01*
X79370143Y-89821748D01*
X79356000Y-89807605D01*
X78555392Y-90608213D01*
X78624857Y-90850397D01*
X79148302Y-91037144D01*
X79649712Y-91012048D01*
X77583880Y-93077880D01*
X77229457Y-93608312D01*
X77159533Y-93959840D01*
X76876774Y-94148774D01*
X62220548Y-108805000D01*
X43334000Y-108805000D01*
X42325629Y-109005577D01*
X41470774Y-109576774D01*
X40899577Y-110431629D01*
X40699000Y-111440000D01*
X32010344Y-111440000D01*
X31769337Y-110228379D01*
X31804756Y-95180213D01*
X42533392Y-95180213D01*
X42602857Y-95422397D01*
X43126302Y-95609144D01*
X43681368Y-95581362D01*
X44065143Y-95422397D01*
X44134608Y-95180213D01*
X43334000Y-94379605D01*
X42533392Y-95180213D01*
X31804756Y-95180213D01*
X31807552Y-93992302D01*
X41924856Y-93992302D01*
X41952638Y-94547368D01*
X42111603Y-94931143D01*
X42353787Y-95000608D01*
X43154395Y-94200000D01*
X43513605Y-94200000D01*
X44314213Y-95000608D01*
X44556397Y-94931143D01*
X44743144Y-94407698D01*
X44715362Y-93852632D01*
X44556397Y-93468857D01*
X44314213Y-93399392D01*
X43513605Y-94200000D01*
X43154395Y-94200000D01*
X42353787Y-93399392D01*
X42111603Y-93468857D01*
X41924856Y-93992302D01*
X31807552Y-93992302D01*
X31809370Y-93219787D01*
X42533392Y-93219787D01*
X43334000Y-94020395D01*
X44134608Y-93219787D01*
X44065143Y-92977603D01*
X43541698Y-92790856D01*
X42986632Y-92818638D01*
X42602857Y-92977603D01*
X42533392Y-93219787D01*
X31809370Y-93219787D01*
X31845758Y-77760168D01*
X32237709Y-78708761D01*
X32987293Y-79459655D01*
X33967173Y-79866536D01*
X35028172Y-79867462D01*
X36008761Y-79462291D01*
X36759655Y-78712707D01*
X37166536Y-77732827D01*
X37167462Y-76671828D01*
X36762291Y-75691239D01*
X36012707Y-74940345D01*
X35032827Y-74533464D01*
X33971828Y-74532538D01*
X32991239Y-74937709D01*
X32240345Y-75687293D01*
X31848416Y-76631165D01*
X31864945Y-69608302D01*
X43402856Y-69608302D01*
X43430638Y-70163368D01*
X43589603Y-70547143D01*
X43831787Y-70616608D01*
X44632395Y-69816000D01*
X43831787Y-69015392D01*
X43589603Y-69084857D01*
X43402856Y-69608302D01*
X31864945Y-69608302D01*
X31870604Y-67204184D01*
X43178578Y-67204184D01*
X43275432Y-67834734D01*
X43606215Y-68380223D01*
X44048900Y-68705020D01*
X44011392Y-68835787D01*
X44812000Y-69636395D01*
X45612608Y-68835787D01*
X45571098Y-68691068D01*
X45916223Y-68481785D01*
X46198155Y-68097523D01*
X46559630Y-68459629D01*
X46767512Y-68545949D01*
X46561697Y-68630990D01*
X46168371Y-69023630D01*
X46088605Y-69215727D01*
X46034397Y-69084857D01*
X45792213Y-69015392D01*
X44991605Y-69816000D01*
X45792213Y-70616608D01*
X46034397Y-70547143D01*
X46084509Y-70406682D01*
X46166990Y-70606303D01*
X46398283Y-70838000D01*
X45600622Y-70838000D01*
X45612608Y-70796213D01*
X44812000Y-69995605D01*
X44011392Y-70796213D01*
X44038524Y-70890807D01*
X43917490Y-70914882D01*
X43589822Y-71133822D01*
X43370882Y-71461490D01*
X43294000Y-71848000D01*
X43294000Y-74896000D01*
X43370882Y-75282510D01*
X43589822Y-75610178D01*
X45326000Y-77346356D01*
X45326000Y-88662304D01*
X45152371Y-88835630D01*
X44939243Y-89348900D01*
X44938758Y-89904661D01*
X45150990Y-90418303D01*
X45543630Y-90811629D01*
X46056900Y-91024757D01*
X46612661Y-91025242D01*
X47126303Y-90813010D01*
X47519629Y-90420370D01*
X47605949Y-90212488D01*
X47690990Y-90418303D01*
X48083630Y-90811629D01*
X48596900Y-91024757D01*
X49152661Y-91025242D01*
X49666303Y-90813010D01*
X50059629Y-90420370D01*
X50145949Y-90212488D01*
X50230990Y-90418303D01*
X50623630Y-90811629D01*
X51136900Y-91024757D01*
X51692661Y-91025242D01*
X52206303Y-90813010D01*
X52599629Y-90420370D01*
X52685949Y-90212488D01*
X52770990Y-90418303D01*
X53163630Y-90811629D01*
X53676900Y-91024757D01*
X54232661Y-91025242D01*
X54746303Y-90813010D01*
X55139629Y-90420370D01*
X55225949Y-90212488D01*
X55310990Y-90418303D01*
X55703630Y-90811629D01*
X56216900Y-91024757D01*
X56772661Y-91025242D01*
X57286303Y-90813010D01*
X57679629Y-90420370D01*
X57765949Y-90212488D01*
X57850990Y-90418303D01*
X58243630Y-90811629D01*
X58756900Y-91024757D01*
X59312661Y-91025242D01*
X59826303Y-90813010D01*
X60219629Y-90420370D01*
X60305949Y-90212488D01*
X60390990Y-90418303D01*
X60783630Y-90811629D01*
X61296900Y-91024757D01*
X61852661Y-91025242D01*
X62366303Y-90813010D01*
X62759629Y-90420370D01*
X62845949Y-90212488D01*
X62930990Y-90418303D01*
X63323630Y-90811629D01*
X63836900Y-91024757D01*
X64392661Y-91025242D01*
X64906303Y-90813010D01*
X65299629Y-90420370D01*
X65385949Y-90212488D01*
X65470990Y-90418303D01*
X65863630Y-90811629D01*
X66376900Y-91024757D01*
X66932661Y-91025242D01*
X67446303Y-90813010D01*
X67839629Y-90420370D01*
X67925949Y-90212488D01*
X68010990Y-90418303D01*
X68403630Y-90811629D01*
X68916900Y-91024757D01*
X69472661Y-91025242D01*
X69986303Y-90813010D01*
X70379629Y-90420370D01*
X70465949Y-90212488D01*
X70550990Y-90418303D01*
X70943630Y-90811629D01*
X71456900Y-91024757D01*
X72012661Y-91025242D01*
X72526303Y-90813010D01*
X72919629Y-90420370D01*
X73005949Y-90212488D01*
X73090990Y-90418303D01*
X73483630Y-90811629D01*
X73996900Y-91024757D01*
X74552661Y-91025242D01*
X75066303Y-90813010D01*
X75459629Y-90420370D01*
X75545949Y-90212488D01*
X75630990Y-90418303D01*
X76023630Y-90811629D01*
X76536900Y-91024757D01*
X77092661Y-91025242D01*
X77606303Y-90813010D01*
X77999629Y-90420370D01*
X78079395Y-90228273D01*
X78133603Y-90359143D01*
X78375787Y-90428608D01*
X79176395Y-89628000D01*
X78375787Y-88827392D01*
X78133603Y-88896857D01*
X78083491Y-89037318D01*
X78001010Y-88837697D01*
X77950612Y-88787211D01*
X77950548Y-88647787D01*
X78555392Y-88647787D01*
X79356000Y-89448395D01*
X80156608Y-88647787D01*
X80087143Y-88405603D01*
X79563698Y-88218856D01*
X79008632Y-88246638D01*
X78624857Y-88405603D01*
X78555392Y-88647787D01*
X77950548Y-88647787D01*
X77950127Y-87733016D01*
X89384590Y-87733016D01*
X89440271Y-87963611D01*
X89923078Y-88131622D01*
X90433428Y-88102083D01*
X90767729Y-87963611D01*
X90823410Y-87733016D01*
X90104000Y-87013605D01*
X89384590Y-87733016D01*
X77950127Y-87733016D01*
X77949628Y-86653078D01*
X88806378Y-86653078D01*
X88835917Y-87163428D01*
X88974389Y-87497729D01*
X89204984Y-87553410D01*
X89924395Y-86834000D01*
X90283605Y-86834000D01*
X91003016Y-87553410D01*
X91233611Y-87497729D01*
X91401622Y-87014922D01*
X91372083Y-86504572D01*
X91239298Y-86184000D01*
X93806560Y-86184000D01*
X93806560Y-87484000D01*
X93850838Y-87719317D01*
X93989910Y-87935441D01*
X94202110Y-88080431D01*
X94454000Y-88131440D01*
X95754000Y-88131440D01*
X95989317Y-88087162D01*
X96205441Y-87948090D01*
X96350431Y-87735890D01*
X96401440Y-87484000D01*
X96401440Y-86184000D01*
X96357162Y-85948683D01*
X96218090Y-85732559D01*
X96005890Y-85587569D01*
X95754000Y-85536560D01*
X94454000Y-85536560D01*
X94218683Y-85580838D01*
X94002559Y-85719910D01*
X93857569Y-85932110D01*
X93806560Y-86184000D01*
X91239298Y-86184000D01*
X91233611Y-86170271D01*
X91003016Y-86114590D01*
X90283605Y-86834000D01*
X89924395Y-86834000D01*
X89204984Y-86114590D01*
X88974389Y-86170271D01*
X88806378Y-86653078D01*
X77949628Y-86653078D01*
X77949303Y-85950139D01*
X77960968Y-85934984D01*
X89384590Y-85934984D01*
X90104000Y-86654395D01*
X90823410Y-85934984D01*
X90767729Y-85704389D01*
X90284922Y-85536378D01*
X89774572Y-85565917D01*
X89440271Y-85704389D01*
X89384590Y-85934984D01*
X77960968Y-85934984D01*
X80210550Y-83012582D01*
X85483132Y-77740000D01*
X99444560Y-77740000D01*
X99444560Y-79740000D01*
X99488838Y-79975317D01*
X99627910Y-80191441D01*
X99840110Y-80336431D01*
X100092000Y-80387440D01*
X102092000Y-80387440D01*
X102327317Y-80343162D01*
X102543441Y-80204090D01*
X102688431Y-79991890D01*
X102739440Y-79740000D01*
X102739440Y-77740000D01*
X102695162Y-77504683D01*
X102556090Y-77288559D01*
X102413439Y-77191090D01*
X102477278Y-77127363D01*
X102726716Y-76526648D01*
X102727284Y-75876205D01*
X102478894Y-75275057D01*
X102154241Y-74949836D01*
X102477278Y-74627363D01*
X102726716Y-74026648D01*
X102727284Y-73376205D01*
X102478894Y-72775057D01*
X102019363Y-72314722D01*
X101418648Y-72065284D01*
X100768205Y-72064716D01*
X100167057Y-72313106D01*
X99706722Y-72772637D01*
X99457284Y-73373352D01*
X99456716Y-74023795D01*
X99705106Y-74624943D01*
X100029759Y-74950164D01*
X99706722Y-75272637D01*
X99457284Y-75873352D01*
X99456716Y-76523795D01*
X99705106Y-77124943D01*
X99771621Y-77191574D01*
X99640559Y-77275910D01*
X99495569Y-77488110D01*
X99444560Y-77740000D01*
X85483132Y-77740000D01*
X89608077Y-73615055D01*
X89620012Y-73632917D01*
X90053118Y-73922308D01*
X90564000Y-74023929D01*
X91074882Y-73922308D01*
X91507988Y-73632917D01*
X91564000Y-73549089D01*
X91620012Y-73632917D01*
X92053118Y-73922308D01*
X92564000Y-74023929D01*
X93074882Y-73922308D01*
X93507988Y-73632917D01*
X93579490Y-73525906D01*
X93709815Y-73685790D01*
X94170450Y-73933980D01*
X94230671Y-73944716D01*
X94437000Y-73821374D01*
X94437000Y-72229000D01*
X94691000Y-72229000D01*
X94691000Y-73821374D01*
X94897329Y-73944716D01*
X94957550Y-73933980D01*
X95418185Y-73685790D01*
X95748778Y-73280215D01*
X95899000Y-72779000D01*
X95899000Y-72229000D01*
X94691000Y-72229000D01*
X94437000Y-72229000D01*
X94417000Y-72229000D01*
X94417000Y-71975000D01*
X94437000Y-71975000D01*
X94437000Y-70382626D01*
X94691000Y-70382626D01*
X94691000Y-71975000D01*
X95899000Y-71975000D01*
X95899000Y-71425000D01*
X95748778Y-70923785D01*
X95418185Y-70518210D01*
X94957550Y-70270020D01*
X94897329Y-70259284D01*
X94691000Y-70382626D01*
X94437000Y-70382626D01*
X94230671Y-70259284D01*
X94199000Y-70264930D01*
X94199000Y-68715240D01*
X97589502Y-65324737D01*
X106888608Y-65324737D01*
X107020300Y-65619617D01*
X107727816Y-65891221D01*
X108485412Y-65871396D01*
X109093260Y-65619617D01*
X109224952Y-65324737D01*
X108056780Y-64156565D01*
X106888608Y-65324737D01*
X97589502Y-65324737D01*
X99083239Y-63831000D01*
X100946000Y-63831000D01*
X100948546Y-63830493D01*
X101269694Y-63830774D01*
X101569120Y-63707054D01*
X101571687Y-63706543D01*
X101573844Y-63705102D01*
X101712050Y-63647996D01*
X106142519Y-63647996D01*
X106162344Y-64405592D01*
X106414123Y-65013440D01*
X106709003Y-65145132D01*
X107877175Y-63976960D01*
X106709003Y-62808788D01*
X106414123Y-62940480D01*
X106142519Y-63647996D01*
X101712050Y-63647996D01*
X101870655Y-63582462D01*
X102099940Y-63353577D01*
X102102120Y-63352120D01*
X102103564Y-63349959D01*
X102330846Y-63123073D01*
X102455088Y-62823864D01*
X102456543Y-62821687D01*
X102457049Y-62819141D01*
X102580206Y-62522547D01*
X102580489Y-62198569D01*
X102581000Y-62196000D01*
X102580493Y-62193454D01*
X102580774Y-61872306D01*
X102457054Y-61572880D01*
X102456543Y-61570313D01*
X102455102Y-61568156D01*
X102332462Y-61271345D01*
X102103577Y-61042060D01*
X102102120Y-61039880D01*
X102099959Y-61038436D01*
X101873073Y-60811154D01*
X101573864Y-60686912D01*
X101571687Y-60685457D01*
X101569141Y-60684951D01*
X101272547Y-60561794D01*
X100948569Y-60561511D01*
X100946000Y-60561000D01*
X98406005Y-60561000D01*
X98406000Y-60560999D01*
X97780313Y-60685457D01*
X97249880Y-61039880D01*
X97249878Y-61039883D01*
X91407880Y-66881880D01*
X91053457Y-67412312D01*
X90928999Y-68038000D01*
X90929000Y-68038005D01*
X90929000Y-70252674D01*
X90564000Y-70180071D01*
X90053118Y-70281692D01*
X89620012Y-70571083D01*
X89330864Y-71003826D01*
X89081654Y-71053397D01*
X88776764Y-71257118D01*
X88713434Y-71299434D01*
X78553434Y-81459434D01*
X78512320Y-81520965D01*
X78456607Y-81569673D01*
X75914732Y-84871791D01*
X75848368Y-85005845D01*
X75765322Y-85130256D01*
X75750969Y-85202588D01*
X75718252Y-85268675D01*
X75708240Y-85417920D01*
X75679125Y-85564642D01*
X75680612Y-88787473D01*
X75632371Y-88835630D01*
X75546051Y-89043512D01*
X75461010Y-88837697D01*
X75068370Y-88444371D01*
X74555100Y-88231243D01*
X73999339Y-88230758D01*
X73485697Y-88442990D01*
X73092371Y-88835630D01*
X73006051Y-89043512D01*
X72921010Y-88837697D01*
X72528370Y-88444371D01*
X72015100Y-88231243D01*
X71459339Y-88230758D01*
X70945697Y-88442990D01*
X70552371Y-88835630D01*
X70466051Y-89043512D01*
X70381010Y-88837697D01*
X69988370Y-88444371D01*
X69475100Y-88231243D01*
X68919339Y-88230758D01*
X68405697Y-88442990D01*
X68012371Y-88835630D01*
X67926051Y-89043512D01*
X67841010Y-88837697D01*
X67448370Y-88444371D01*
X66935100Y-88231243D01*
X66379339Y-88230758D01*
X65865697Y-88442990D01*
X65472371Y-88835630D01*
X65386051Y-89043512D01*
X65301010Y-88837697D01*
X64908370Y-88444371D01*
X64395100Y-88231243D01*
X63839339Y-88230758D01*
X63325697Y-88442990D01*
X62932371Y-88835630D01*
X62846051Y-89043512D01*
X62761010Y-88837697D01*
X62368370Y-88444371D01*
X61855100Y-88231243D01*
X61299339Y-88230758D01*
X60785697Y-88442990D01*
X60392371Y-88835630D01*
X60306051Y-89043512D01*
X60221010Y-88837697D01*
X59828370Y-88444371D01*
X59315100Y-88231243D01*
X58759339Y-88230758D01*
X58245697Y-88442990D01*
X57852371Y-88835630D01*
X57766051Y-89043512D01*
X57681010Y-88837697D01*
X57288370Y-88444371D01*
X56775100Y-88231243D01*
X56219339Y-88230758D01*
X55705697Y-88442990D01*
X55312371Y-88835630D01*
X55226051Y-89043512D01*
X55141010Y-88837697D01*
X54748370Y-88444371D01*
X54235100Y-88231243D01*
X53679339Y-88230758D01*
X53165697Y-88442990D01*
X52772371Y-88835630D01*
X52686051Y-89043512D01*
X52601010Y-88837697D01*
X52208370Y-88444371D01*
X51695100Y-88231243D01*
X51139339Y-88230758D01*
X50625697Y-88442990D01*
X50232371Y-88835630D01*
X50146051Y-89043512D01*
X50061010Y-88837697D01*
X49668370Y-88444371D01*
X49155100Y-88231243D01*
X48599339Y-88230758D01*
X48085697Y-88442990D01*
X47692371Y-88835630D01*
X47606051Y-89043512D01*
X47521010Y-88837697D01*
X47346000Y-88662381D01*
X47346000Y-76928000D01*
X47269118Y-76541490D01*
X47050178Y-76213822D01*
X46618985Y-75782629D01*
X47126303Y-75573010D01*
X47519629Y-75180370D01*
X47605949Y-74972488D01*
X47690990Y-75178303D01*
X48083630Y-75571629D01*
X48596900Y-75784757D01*
X49152661Y-75785242D01*
X49666303Y-75573010D01*
X50059629Y-75180370D01*
X50145949Y-74972488D01*
X50230990Y-75178303D01*
X50623630Y-75571629D01*
X51136900Y-75784757D01*
X51692661Y-75785242D01*
X52206303Y-75573010D01*
X52599629Y-75180370D01*
X52685949Y-74972488D01*
X52770990Y-75178303D01*
X53163630Y-75571629D01*
X53676900Y-75784757D01*
X54232661Y-75785242D01*
X54746303Y-75573010D01*
X55139629Y-75180370D01*
X55225949Y-74972488D01*
X55310990Y-75178303D01*
X55703630Y-75571629D01*
X56216900Y-75784757D01*
X56772661Y-75785242D01*
X57286303Y-75573010D01*
X57679629Y-75180370D01*
X57765949Y-74972488D01*
X57850990Y-75178303D01*
X58243630Y-75571629D01*
X58756900Y-75784757D01*
X59312661Y-75785242D01*
X59826303Y-75573010D01*
X60219629Y-75180370D01*
X60305949Y-74972488D01*
X60390990Y-75178303D01*
X60783630Y-75571629D01*
X61296900Y-75784757D01*
X61852661Y-75785242D01*
X62366303Y-75573010D01*
X62759629Y-75180370D01*
X62845949Y-74972488D01*
X62930990Y-75178303D01*
X63323630Y-75571629D01*
X63836900Y-75784757D01*
X64392661Y-75785242D01*
X64906303Y-75573010D01*
X65299629Y-75180370D01*
X65385949Y-74972488D01*
X65470990Y-75178303D01*
X65863630Y-75571629D01*
X66376900Y-75784757D01*
X66932661Y-75785242D01*
X67446303Y-75573010D01*
X67839629Y-75180370D01*
X67925949Y-74972488D01*
X68010990Y-75178303D01*
X68403630Y-75571629D01*
X68916900Y-75784757D01*
X69472661Y-75785242D01*
X69986303Y-75573010D01*
X70379629Y-75180370D01*
X70465949Y-74972488D01*
X70550990Y-75178303D01*
X70943630Y-75571629D01*
X71456900Y-75784757D01*
X72012661Y-75785242D01*
X72526303Y-75573010D01*
X72731457Y-75368213D01*
X73475392Y-75368213D01*
X73544857Y-75610397D01*
X74068302Y-75797144D01*
X74623368Y-75769362D01*
X75007143Y-75610397D01*
X75076608Y-75368213D01*
X74276000Y-74567605D01*
X73475392Y-75368213D01*
X72731457Y-75368213D01*
X72919629Y-75180370D01*
X72999395Y-74988273D01*
X73053603Y-75119143D01*
X73295787Y-75188608D01*
X74096395Y-74388000D01*
X74455605Y-74388000D01*
X75256213Y-75188608D01*
X75498397Y-75119143D01*
X75548509Y-74978682D01*
X75630990Y-75178303D01*
X76023630Y-75571629D01*
X76536900Y-75784757D01*
X77092661Y-75785242D01*
X77606303Y-75573010D01*
X77999629Y-75180370D01*
X78085949Y-74972488D01*
X78170990Y-75178303D01*
X78563630Y-75571629D01*
X79076900Y-75784757D01*
X79632661Y-75785242D01*
X80146303Y-75573010D01*
X80539629Y-75180370D01*
X80625949Y-74972488D01*
X80710990Y-75178303D01*
X81103630Y-75571629D01*
X81616900Y-75784757D01*
X82172661Y-75785242D01*
X82686303Y-75573010D01*
X83079629Y-75180370D01*
X83292757Y-74667100D01*
X83293242Y-74111339D01*
X83081010Y-73597697D01*
X82688370Y-73204371D01*
X82175100Y-72991243D01*
X81619339Y-72990758D01*
X81105697Y-73202990D01*
X80712371Y-73595630D01*
X80626051Y-73803512D01*
X80541010Y-73597697D01*
X80148370Y-73204371D01*
X79635100Y-72991243D01*
X79079339Y-72990758D01*
X78565697Y-73202990D01*
X78172371Y-73595630D01*
X78086051Y-73803512D01*
X78001010Y-73597697D01*
X77608370Y-73204371D01*
X77095100Y-72991243D01*
X76539339Y-72990758D01*
X76025697Y-73202990D01*
X75632371Y-73595630D01*
X75552605Y-73787727D01*
X75498397Y-73656857D01*
X75256213Y-73587392D01*
X74455605Y-74388000D01*
X74096395Y-74388000D01*
X73295787Y-73587392D01*
X73053603Y-73656857D01*
X73003491Y-73797318D01*
X72921010Y-73597697D01*
X72731432Y-73407787D01*
X73475392Y-73407787D01*
X74276000Y-74208395D01*
X75076608Y-73407787D01*
X75007143Y-73165603D01*
X74483698Y-72978856D01*
X73928632Y-73006638D01*
X73544857Y-73165603D01*
X73475392Y-73407787D01*
X72731432Y-73407787D01*
X72528370Y-73204371D01*
X72015100Y-72991243D01*
X71459339Y-72990758D01*
X70945697Y-73202990D01*
X70552371Y-73595630D01*
X70466051Y-73803512D01*
X70381010Y-73597697D01*
X69988370Y-73204371D01*
X69475100Y-72991243D01*
X69037495Y-72990861D01*
X69231611Y-72796745D01*
X77748369Y-70302888D01*
X77781335Y-70306720D01*
X78160399Y-70198962D01*
X78330118Y-70064594D01*
X78383157Y-70036900D01*
X78418631Y-69994517D01*
X78469371Y-69954346D01*
X79727942Y-68474535D01*
X79784560Y-68372942D01*
X79856880Y-68281860D01*
X79879577Y-68202446D01*
X79919784Y-68130300D01*
X79933214Y-68014777D01*
X79965175Y-67902949D01*
X80105933Y-66190927D01*
X80101215Y-66149835D01*
X80109328Y-66109281D01*
X80109963Y-65533393D01*
X80112266Y-65498000D01*
X81023000Y-65498000D01*
X81023507Y-65500546D01*
X81023226Y-65821694D01*
X81146946Y-66121120D01*
X81147457Y-66123687D01*
X81148898Y-66125844D01*
X81271538Y-66422655D01*
X81500423Y-66651940D01*
X81501880Y-66654120D01*
X81504041Y-66655564D01*
X81730927Y-66882846D01*
X82030136Y-67007088D01*
X82032313Y-67008543D01*
X82034859Y-67009049D01*
X82331453Y-67132206D01*
X82655431Y-67132489D01*
X82658000Y-67133000D01*
X88499995Y-67133000D01*
X88500000Y-67133001D01*
X89125688Y-67008543D01*
X89656120Y-66654120D01*
X91434117Y-64876122D01*
X91434120Y-64876120D01*
X91788543Y-64345687D01*
X91829512Y-64139724D01*
X91913001Y-63720000D01*
X91913000Y-63719995D01*
X91913000Y-60046163D01*
X99987443Y-60046163D01*
X100086042Y-60312965D01*
X100695582Y-60539401D01*
X101345377Y-60515341D01*
X101833958Y-60312965D01*
X101932557Y-60046163D01*
X100960000Y-59073605D01*
X99987443Y-60046163D01*
X91913000Y-60046163D01*
X91913000Y-58629582D01*
X99314599Y-58629582D01*
X99338659Y-59279377D01*
X99541035Y-59767958D01*
X99807837Y-59866557D01*
X100780395Y-58894000D01*
X101139605Y-58894000D01*
X102112163Y-59866557D01*
X102378965Y-59767958D01*
X102605401Y-59158418D01*
X102581341Y-58508623D01*
X102378965Y-58020042D01*
X102112163Y-57921443D01*
X101139605Y-58894000D01*
X100780395Y-58894000D01*
X99807837Y-57921443D01*
X99541035Y-58020042D01*
X99314599Y-58629582D01*
X91913000Y-58629582D01*
X91913000Y-57741837D01*
X99987443Y-57741837D01*
X100960000Y-58714395D01*
X101932557Y-57741837D01*
X101833958Y-57475035D01*
X101224418Y-57248599D01*
X100574623Y-57272659D01*
X100086042Y-57475035D01*
X99987443Y-57741837D01*
X91913000Y-57741837D01*
X91913000Y-55810213D01*
X93033392Y-55810213D01*
X93102857Y-56052397D01*
X93626302Y-56239144D01*
X94181368Y-56211362D01*
X94565143Y-56052397D01*
X94634608Y-55810213D01*
X93834000Y-55009605D01*
X93033392Y-55810213D01*
X91913000Y-55810213D01*
X91913000Y-54622302D01*
X92424856Y-54622302D01*
X92452638Y-55177368D01*
X92611603Y-55561143D01*
X92853787Y-55630608D01*
X93654395Y-54830000D01*
X94013605Y-54830000D01*
X94814213Y-55630608D01*
X95056397Y-55561143D01*
X95243144Y-55037698D01*
X95215362Y-54482632D01*
X95056397Y-54098857D01*
X94814213Y-54029392D01*
X94013605Y-54830000D01*
X93654395Y-54830000D01*
X92853787Y-54029392D01*
X92611603Y-54098857D01*
X92424856Y-54622302D01*
X91913000Y-54622302D01*
X91913000Y-48903240D01*
X91971240Y-48845000D01*
X92763198Y-48845000D01*
X92650371Y-48957630D01*
X92437243Y-49470900D01*
X92436758Y-50026661D01*
X92648990Y-50540303D01*
X93041630Y-50933629D01*
X93249512Y-51019949D01*
X93043697Y-51104990D01*
X92650371Y-51497630D01*
X92437243Y-52010900D01*
X92436758Y-52566661D01*
X92648990Y-53080303D01*
X93041630Y-53473629D01*
X93233727Y-53553395D01*
X93102857Y-53607603D01*
X93033392Y-53849787D01*
X93834000Y-54650395D01*
X94634608Y-53849787D01*
X94565143Y-53607603D01*
X94424682Y-53557491D01*
X94624303Y-53475010D01*
X95017629Y-53082370D01*
X95230757Y-52569100D01*
X95231242Y-52013339D01*
X95019010Y-51499697D01*
X94626370Y-51106371D01*
X94418488Y-51020051D01*
X94624303Y-50935010D01*
X95017629Y-50542370D01*
X95230757Y-50029100D01*
X95231242Y-49473339D01*
X95019010Y-48959697D01*
X94651999Y-48592045D01*
X94990120Y-48366120D01*
X95344543Y-47835687D01*
X95413968Y-47486661D01*
X101326758Y-47486661D01*
X101538990Y-48000303D01*
X101931630Y-48393629D01*
X102139512Y-48479949D01*
X101933697Y-48564990D01*
X101540371Y-48957630D01*
X101327243Y-49470900D01*
X101326758Y-50026661D01*
X101538990Y-50540303D01*
X101931630Y-50933629D01*
X102139512Y-51019949D01*
X101933697Y-51104990D01*
X101540371Y-51497630D01*
X101327243Y-52010900D01*
X101326758Y-52566661D01*
X101538990Y-53080303D01*
X101931630Y-53473629D01*
X102139512Y-53559949D01*
X101933697Y-53644990D01*
X101540371Y-54037630D01*
X101327243Y-54550900D01*
X101326758Y-55106661D01*
X101538990Y-55620303D01*
X101931630Y-56013629D01*
X102444900Y-56226757D01*
X103000661Y-56227242D01*
X103514303Y-56015010D01*
X103907629Y-55622370D01*
X104120757Y-55109100D01*
X104121242Y-54553339D01*
X103909010Y-54039697D01*
X103516370Y-53646371D01*
X103308488Y-53560051D01*
X103514303Y-53475010D01*
X103907629Y-53082370D01*
X104120757Y-52569100D01*
X104121242Y-52013339D01*
X103909010Y-51499697D01*
X103516370Y-51106371D01*
X103308488Y-51020051D01*
X103514303Y-50935010D01*
X103907629Y-50542370D01*
X104120757Y-50029100D01*
X104121242Y-49473339D01*
X103925663Y-49000000D01*
X106352560Y-49000000D01*
X106352560Y-51000000D01*
X106396838Y-51235317D01*
X106535910Y-51451441D01*
X106748110Y-51596431D01*
X107000000Y-51647440D01*
X109000000Y-51647440D01*
X109235317Y-51603162D01*
X109451441Y-51464090D01*
X109596431Y-51251890D01*
X109647440Y-51000000D01*
X109647440Y-49000000D01*
X109603162Y-48764683D01*
X109464090Y-48548559D01*
X109321439Y-48451090D01*
X109385278Y-48387363D01*
X109400792Y-48350000D01*
X113702560Y-48350000D01*
X113702560Y-49650000D01*
X113746838Y-49885317D01*
X113885910Y-50101441D01*
X114098110Y-50246431D01*
X114350000Y-50297440D01*
X115650000Y-50297440D01*
X115885317Y-50253162D01*
X116101441Y-50114090D01*
X116246431Y-49901890D01*
X116247012Y-49899016D01*
X118080590Y-49899016D01*
X118136271Y-50129611D01*
X118619078Y-50297622D01*
X119129428Y-50268083D01*
X119463729Y-50129611D01*
X119519410Y-49899016D01*
X118800000Y-49179605D01*
X118080590Y-49899016D01*
X116247012Y-49899016D01*
X116297440Y-49650000D01*
X116297440Y-48819078D01*
X117502378Y-48819078D01*
X117531917Y-49329428D01*
X117670389Y-49663729D01*
X117900984Y-49719410D01*
X118620395Y-49000000D01*
X118979605Y-49000000D01*
X119699016Y-49719410D01*
X119929611Y-49663729D01*
X120097622Y-49180922D01*
X120068083Y-48670572D01*
X119929611Y-48336271D01*
X119699016Y-48280590D01*
X118979605Y-49000000D01*
X118620395Y-49000000D01*
X117900984Y-48280590D01*
X117670389Y-48336271D01*
X117502378Y-48819078D01*
X116297440Y-48819078D01*
X116297440Y-48350000D01*
X116253162Y-48114683D01*
X116244347Y-48100984D01*
X118080590Y-48100984D01*
X118800000Y-48820395D01*
X119519410Y-48100984D01*
X119463729Y-47870389D01*
X118980922Y-47702378D01*
X118470572Y-47731917D01*
X118136271Y-47870389D01*
X118080590Y-48100984D01*
X116244347Y-48100984D01*
X116114090Y-47898559D01*
X115901890Y-47753569D01*
X115650000Y-47702560D01*
X114350000Y-47702560D01*
X114114683Y-47746838D01*
X113898559Y-47885910D01*
X113753569Y-48098110D01*
X113702560Y-48350000D01*
X109400792Y-48350000D01*
X109634716Y-47786648D01*
X109635284Y-47136205D01*
X109386894Y-46535057D01*
X109062241Y-46209836D01*
X109385278Y-45887363D01*
X109634716Y-45286648D01*
X109635284Y-44636205D01*
X109386894Y-44035057D01*
X108927363Y-43574722D01*
X108326648Y-43325284D01*
X107676205Y-43324716D01*
X107075057Y-43573106D01*
X106614722Y-44032637D01*
X106365284Y-44633352D01*
X106364716Y-45283795D01*
X106613106Y-45884943D01*
X106937759Y-46210164D01*
X106614722Y-46532637D01*
X106365284Y-47133352D01*
X106364716Y-47783795D01*
X106613106Y-48384943D01*
X106679621Y-48451574D01*
X106548559Y-48535910D01*
X106403569Y-48748110D01*
X106352560Y-49000000D01*
X103925663Y-49000000D01*
X103909010Y-48959697D01*
X103516370Y-48566371D01*
X103308488Y-48480051D01*
X103514303Y-48395010D01*
X103907629Y-48002370D01*
X104120757Y-47489100D01*
X104121242Y-46933339D01*
X103909010Y-46419697D01*
X103516370Y-46026371D01*
X103003100Y-45813243D01*
X102447339Y-45812758D01*
X101933697Y-46024990D01*
X101540371Y-46417630D01*
X101327243Y-46930900D01*
X101326758Y-47486661D01*
X95413968Y-47486661D01*
X95469000Y-47210000D01*
X95344543Y-46584313D01*
X94990120Y-46053880D01*
X94459687Y-45699457D01*
X93834000Y-45575000D01*
X91294005Y-45575000D01*
X91294000Y-45574999D01*
X90668312Y-45699457D01*
X90137880Y-46053880D01*
X89121880Y-47069880D01*
X88767457Y-47600312D01*
X88642999Y-48226000D01*
X88643000Y-48226005D01*
X88643000Y-63042761D01*
X87822760Y-63863000D01*
X82658000Y-63863000D01*
X82655454Y-63863507D01*
X82334306Y-63863226D01*
X82034880Y-63986946D01*
X82032313Y-63987457D01*
X82030156Y-63988898D01*
X81733345Y-64111538D01*
X81504060Y-64340423D01*
X81501880Y-64341880D01*
X81500436Y-64344041D01*
X81273154Y-64570927D01*
X81148912Y-64870136D01*
X81147457Y-64872313D01*
X81146951Y-64874859D01*
X81023794Y-65171453D01*
X81023511Y-65495431D01*
X81023000Y-65498000D01*
X80112266Y-65498000D01*
X80306120Y-62519694D01*
X84311226Y-62519694D01*
X84559538Y-63120655D01*
X85018927Y-63580846D01*
X85619453Y-63830206D01*
X86269694Y-63830774D01*
X86870655Y-63582462D01*
X87330846Y-63123073D01*
X87580206Y-62522547D01*
X87580774Y-61872306D01*
X87332462Y-61271345D01*
X86873073Y-60811154D01*
X86272547Y-60561794D01*
X85622306Y-60561226D01*
X85021345Y-60809538D01*
X84561154Y-61268927D01*
X84311794Y-61869453D01*
X84311226Y-62519694D01*
X80306120Y-62519694D01*
X80521043Y-59217694D01*
X84325226Y-59217694D01*
X84573538Y-59818655D01*
X85032927Y-60278846D01*
X85633453Y-60528206D01*
X86283694Y-60528774D01*
X86884655Y-60280462D01*
X87344846Y-59821073D01*
X87594206Y-59220547D01*
X87594774Y-58570306D01*
X87346462Y-57969345D01*
X86887073Y-57509154D01*
X86286547Y-57259794D01*
X85636306Y-57259226D01*
X85035345Y-57507538D01*
X84575154Y-57966927D01*
X84325794Y-58567453D01*
X84325226Y-59217694D01*
X80521043Y-59217694D01*
X81061500Y-50914325D01*
X81271538Y-51422655D01*
X81730927Y-51882846D01*
X82331453Y-52132206D01*
X82981694Y-52132774D01*
X83582655Y-51884462D01*
X84042846Y-51425073D01*
X84292206Y-50824547D01*
X84292774Y-50174306D01*
X84044462Y-49573345D01*
X83585073Y-49113154D01*
X82984547Y-48863794D01*
X82334306Y-48863226D01*
X81733345Y-49111538D01*
X81273154Y-49570927D01*
X81125850Y-49925674D01*
X81183160Y-49045196D01*
X81414178Y-48814178D01*
X81633118Y-48486510D01*
X81710000Y-48100000D01*
X81710000Y-44505696D01*
X81883629Y-44332370D01*
X81969949Y-44124488D01*
X82054990Y-44330303D01*
X82447630Y-44723629D01*
X82960900Y-44936757D01*
X83516661Y-44937242D01*
X84030303Y-44725010D01*
X84423629Y-44332370D01*
X84636757Y-43819100D01*
X84637242Y-43263339D01*
X84523972Y-42989202D01*
X110172403Y-42989202D01*
X110393203Y-43359949D01*
X111364953Y-43753367D01*
X112413287Y-43744965D01*
X113342797Y-43359949D01*
X113563597Y-42989202D01*
X111868000Y-41293605D01*
X110172403Y-42989202D01*
X84523972Y-42989202D01*
X84425010Y-42749697D01*
X84032370Y-42356371D01*
X83519100Y-42143243D01*
X82963339Y-42142758D01*
X82449697Y-42354990D01*
X82056371Y-42747630D01*
X81970051Y-42955512D01*
X81885010Y-42749697D01*
X81492370Y-42356371D01*
X80979100Y-42143243D01*
X80423339Y-42142758D01*
X79909697Y-42354990D01*
X79516371Y-42747630D01*
X79430051Y-42955512D01*
X79345010Y-42749697D01*
X78952370Y-42356371D01*
X78439100Y-42143243D01*
X77883339Y-42142758D01*
X77369697Y-42354990D01*
X76976371Y-42747630D01*
X76896605Y-42939727D01*
X76842397Y-42808857D01*
X76600213Y-42739392D01*
X75799605Y-43540000D01*
X76600213Y-44340608D01*
X76842397Y-44271143D01*
X76892509Y-44130682D01*
X76974990Y-44330303D01*
X77150000Y-44505619D01*
X77150000Y-49938148D01*
X77145138Y-49952011D01*
X77146351Y-49973879D01*
X77139992Y-49994836D01*
X76890095Y-52530297D01*
X76819410Y-52600982D01*
X76763729Y-52370389D01*
X76280922Y-52202378D01*
X75770572Y-52231917D01*
X75436271Y-52370389D01*
X75380590Y-52600982D01*
X75278928Y-52499320D01*
X75214090Y-52398559D01*
X75001890Y-52253569D01*
X74750000Y-52202560D01*
X73450000Y-52202560D01*
X73214683Y-52246838D01*
X72998559Y-52385910D01*
X72853569Y-52598110D01*
X72802560Y-52850000D01*
X72802560Y-54150000D01*
X72846838Y-54385317D01*
X72985910Y-54601441D01*
X73198110Y-54746431D01*
X73450000Y-54797440D01*
X74750000Y-54797440D01*
X74985317Y-54753162D01*
X75201441Y-54614090D01*
X75278937Y-54500671D01*
X75380590Y-54399018D01*
X75436271Y-54629611D01*
X75919078Y-54797622D01*
X76429428Y-54768083D01*
X76679758Y-54664393D01*
X75464669Y-66992748D01*
X68955039Y-68620156D01*
X68887140Y-68652232D01*
X68813490Y-68666882D01*
X68710602Y-68735630D01*
X68598716Y-68788485D01*
X68548262Y-68844101D01*
X68485822Y-68885822D01*
X64380414Y-72991230D01*
X63839339Y-72990758D01*
X63325697Y-73202990D01*
X62932371Y-73595630D01*
X62846051Y-73803512D01*
X62761010Y-73597697D01*
X62368370Y-73204371D01*
X61855100Y-72991243D01*
X61299339Y-72990758D01*
X60785697Y-73202990D01*
X60392371Y-73595630D01*
X60306051Y-73803512D01*
X60221010Y-73597697D01*
X60046000Y-73422381D01*
X60046000Y-70324000D01*
X59969118Y-69937490D01*
X59750178Y-69609822D01*
X56839372Y-66699016D01*
X73280590Y-66699016D01*
X73336271Y-66929611D01*
X73819078Y-67097622D01*
X74329428Y-67068083D01*
X74663729Y-66929611D01*
X74719410Y-66699016D01*
X74000000Y-65979605D01*
X73280590Y-66699016D01*
X56839372Y-66699016D01*
X55759434Y-65619078D01*
X72702378Y-65619078D01*
X72731917Y-66129428D01*
X72870389Y-66463729D01*
X73100984Y-66519410D01*
X73820395Y-65800000D01*
X74179605Y-65800000D01*
X74899016Y-66519410D01*
X75129611Y-66463729D01*
X75297622Y-65980922D01*
X75268083Y-65470572D01*
X75129611Y-65136271D01*
X74899016Y-65080590D01*
X74179605Y-65800000D01*
X73820395Y-65800000D01*
X73100984Y-65080590D01*
X72870389Y-65136271D01*
X72702378Y-65619078D01*
X55759434Y-65619078D01*
X55041340Y-64900984D01*
X73280590Y-64900984D01*
X74000000Y-65620395D01*
X74719410Y-64900984D01*
X74663729Y-64670389D01*
X74180922Y-64502378D01*
X73670572Y-64531917D01*
X73336271Y-64670389D01*
X73280590Y-64900984D01*
X55041340Y-64900984D01*
X54915169Y-64774813D01*
X60028974Y-64846838D01*
X60656352Y-64731205D01*
X61191724Y-64384287D01*
X61344881Y-64161916D01*
X61388271Y-64341611D01*
X61871078Y-64509622D01*
X62381428Y-64480083D01*
X62715729Y-64341611D01*
X62771410Y-64111016D01*
X62052000Y-63391605D01*
X62037858Y-63405748D01*
X61858253Y-63226143D01*
X61872395Y-63212000D01*
X62231605Y-63212000D01*
X62951016Y-63931410D01*
X63181611Y-63875729D01*
X63349622Y-63392922D01*
X63320083Y-62882572D01*
X63181611Y-62548271D01*
X62951016Y-62492590D01*
X62231605Y-63212000D01*
X61872395Y-63212000D01*
X61858253Y-63197858D01*
X62037858Y-63018252D01*
X62052000Y-63032395D01*
X62771410Y-62312984D01*
X62715729Y-62082389D01*
X62232922Y-61914378D01*
X61722572Y-61943917D01*
X61388271Y-62082389D01*
X61345532Y-62259385D01*
X61224287Y-62072276D01*
X60698898Y-61710418D01*
X60075026Y-61577162D01*
X45023026Y-61365162D01*
X44732876Y-61418640D01*
X44441266Y-61463432D01*
X44420050Y-61476297D01*
X44395648Y-61480795D01*
X44148056Y-61641233D01*
X43895777Y-61794214D01*
X43881099Y-61814220D01*
X43860276Y-61827713D01*
X43692926Y-62070692D01*
X43518397Y-62308568D01*
X43512492Y-62332668D01*
X43498418Y-62353102D01*
X43436790Y-62641628D01*
X43366578Y-62928184D01*
X43178578Y-67204184D01*
X31870604Y-67204184D01*
X31884382Y-61350000D01*
X72702560Y-61350000D01*
X72702560Y-62650000D01*
X72746838Y-62885317D01*
X72885910Y-63101441D01*
X73098110Y-63246431D01*
X73350000Y-63297440D01*
X74650000Y-63297440D01*
X74885317Y-63253162D01*
X75101441Y-63114090D01*
X75246431Y-62901890D01*
X75297440Y-62650000D01*
X75297440Y-61350000D01*
X75253162Y-61114683D01*
X75114090Y-60898559D01*
X74901890Y-60753569D01*
X74650000Y-60702560D01*
X73350000Y-60702560D01*
X73114683Y-60746838D01*
X72898559Y-60885910D01*
X72753569Y-61098110D01*
X72702560Y-61350000D01*
X31884382Y-61350000D01*
X31896925Y-56021071D01*
X63829000Y-56021071D01*
X63829000Y-57194929D01*
X63930621Y-57705811D01*
X64220012Y-58138917D01*
X64653118Y-58428308D01*
X65164000Y-58529929D01*
X65674882Y-58428308D01*
X66107988Y-58138917D01*
X66164000Y-58055089D01*
X66220012Y-58138917D01*
X66653118Y-58428308D01*
X67164000Y-58529929D01*
X67674882Y-58428308D01*
X68107988Y-58138917D01*
X68179490Y-58031906D01*
X68309815Y-58191790D01*
X68770450Y-58439980D01*
X68830671Y-58450716D01*
X69037000Y-58327374D01*
X69037000Y-56735000D01*
X69291000Y-56735000D01*
X69291000Y-58327374D01*
X69497329Y-58450716D01*
X69557550Y-58439980D01*
X70018185Y-58191790D01*
X70348778Y-57786215D01*
X70499000Y-57285000D01*
X70499000Y-56735000D01*
X69291000Y-56735000D01*
X69037000Y-56735000D01*
X69017000Y-56735000D01*
X69017000Y-56481000D01*
X69037000Y-56481000D01*
X69037000Y-54888626D01*
X69291000Y-54888626D01*
X69291000Y-56481000D01*
X70499000Y-56481000D01*
X70499000Y-55931000D01*
X70348778Y-55429785D01*
X70018185Y-55024210D01*
X69557550Y-54776020D01*
X69497329Y-54765284D01*
X69291000Y-54888626D01*
X69037000Y-54888626D01*
X68830671Y-54765284D01*
X68770450Y-54776020D01*
X68309815Y-55024210D01*
X68179490Y-55184094D01*
X68107988Y-55077083D01*
X67674882Y-54787692D01*
X67164000Y-54686071D01*
X66653118Y-54787692D01*
X66220012Y-55077083D01*
X66164000Y-55160911D01*
X66107988Y-55077083D01*
X65674882Y-54787692D01*
X65164000Y-54686071D01*
X64653118Y-54787692D01*
X64220012Y-55077083D01*
X63930621Y-55510189D01*
X63829000Y-56021071D01*
X31896925Y-56021071D01*
X31923994Y-44520213D01*
X74819392Y-44520213D01*
X74888857Y-44762397D01*
X75412302Y-44949144D01*
X75967368Y-44921362D01*
X76351143Y-44762397D01*
X76420608Y-44520213D01*
X75620000Y-43719605D01*
X74819392Y-44520213D01*
X31923994Y-44520213D01*
X31926791Y-43332302D01*
X74210856Y-43332302D01*
X74238638Y-43887368D01*
X74397603Y-44271143D01*
X74639787Y-44340608D01*
X75440395Y-43540000D01*
X74639787Y-42739392D01*
X74397603Y-42808857D01*
X74210856Y-43332302D01*
X31926791Y-43332302D01*
X31928609Y-42559787D01*
X74819392Y-42559787D01*
X75620000Y-43360395D01*
X76420608Y-42559787D01*
X76351143Y-42317603D01*
X75827698Y-42130856D01*
X75272632Y-42158638D01*
X74888857Y-42317603D01*
X74819392Y-42559787D01*
X31928609Y-42559787D01*
X31933196Y-40610953D01*
X109228633Y-40610953D01*
X109237035Y-41659287D01*
X109622051Y-42588797D01*
X109992798Y-42809597D01*
X111688395Y-41114000D01*
X112047605Y-41114000D01*
X113743202Y-42809597D01*
X114113949Y-42588797D01*
X114499740Y-41635884D01*
X119392293Y-41635884D01*
X119792641Y-42604799D01*
X120393000Y-43206207D01*
X120393000Y-43653995D01*
X120392999Y-43654000D01*
X120517457Y-44279688D01*
X120871880Y-44810120D01*
X122141880Y-46080119D01*
X122144038Y-46081561D01*
X122370927Y-46308846D01*
X122670133Y-46433087D01*
X122672312Y-46434543D01*
X122674860Y-46435050D01*
X122971453Y-46558206D01*
X123295431Y-46558489D01*
X123298000Y-46559000D01*
X123300546Y-46558493D01*
X123621694Y-46558774D01*
X123921120Y-46435054D01*
X123923688Y-46434543D01*
X123925846Y-46433101D01*
X124222655Y-46310462D01*
X124451945Y-46081572D01*
X124454119Y-46080119D01*
X124455559Y-46077964D01*
X124682846Y-45851073D01*
X124807087Y-45551867D01*
X124808543Y-45549688D01*
X124809050Y-45547140D01*
X124932206Y-45250547D01*
X124932489Y-44926569D01*
X124933000Y-44924000D01*
X124932493Y-44921454D01*
X124932774Y-44600306D01*
X124809054Y-44300880D01*
X124808543Y-44298312D01*
X124807101Y-44296154D01*
X124684462Y-43999345D01*
X124455574Y-43770057D01*
X124454119Y-43767880D01*
X123777424Y-43091185D01*
X124260754Y-42608698D01*
X124662792Y-41640483D01*
X124663707Y-40592116D01*
X124263359Y-39623201D01*
X123522698Y-38881246D01*
X122554483Y-38479208D01*
X121506116Y-38478293D01*
X120537201Y-38878641D01*
X119795246Y-39619302D01*
X119393208Y-40587517D01*
X119392293Y-41635884D01*
X114499740Y-41635884D01*
X114507367Y-41617047D01*
X114498965Y-40568713D01*
X114113949Y-39639203D01*
X113743202Y-39418403D01*
X112047605Y-41114000D01*
X111688395Y-41114000D01*
X109992798Y-39418403D01*
X109622051Y-39639203D01*
X109228633Y-40610953D01*
X31933196Y-40610953D01*
X31936425Y-39238798D01*
X110172403Y-39238798D01*
X111868000Y-40934395D01*
X113563597Y-39238798D01*
X113342797Y-38868051D01*
X112371047Y-38474633D01*
X111322713Y-38483035D01*
X110393203Y-38868051D01*
X110172403Y-39238798D01*
X31936425Y-39238798D01*
X31948674Y-34035208D01*
X33051931Y-33815756D01*
X33238408Y-33738514D01*
X33307872Y-33709741D01*
X34477572Y-32928172D01*
X114332538Y-32928172D01*
X114737709Y-33908761D01*
X115487293Y-34659655D01*
X116467173Y-35066536D01*
X117528172Y-35067462D01*
X118508761Y-34662291D01*
X119259655Y-33912707D01*
X119666536Y-32932827D01*
X119667462Y-31871828D01*
X119262291Y-30891239D01*
X118512707Y-30140345D01*
X117532827Y-29733464D01*
X116471828Y-29732538D01*
X115491239Y-30137709D01*
X114740345Y-30887293D01*
X114333464Y-31867173D01*
X114332538Y-32928172D01*
X34477572Y-32928172D01*
X34929989Y-32625877D01*
X35125877Y-32429989D01*
X36209742Y-30807872D01*
X36299904Y-30590200D01*
X36315756Y-30551931D01*
X36471261Y-29770154D01*
X123510653Y-29679232D01*
X123691856Y-30590200D01*
X123691856Y-30590200D01*
G37*
X123691856Y-30590200D02*
X123782019Y-30807871D01*
X123797871Y-30846141D01*
X124903411Y-32500700D01*
X125024154Y-32621442D01*
X125099300Y-32696588D01*
X126753859Y-33802129D01*
X126786758Y-33815756D01*
X127009800Y-33908144D01*
X127424543Y-33990641D01*
X127327996Y-75009451D01*
X127256423Y-74649629D01*
X127014315Y-74287289D01*
X126685227Y-73794774D01*
X120581025Y-67690573D01*
X120398423Y-66772569D01*
X119827226Y-65917714D01*
X111191746Y-57282234D01*
X110626973Y-56904864D01*
X110629591Y-56903180D01*
X110774581Y-56690980D01*
X110825590Y-56439090D01*
X110825590Y-55589460D01*
X117853520Y-55589460D01*
X117853520Y-59145460D01*
X117977977Y-59771147D01*
X118332400Y-60301580D01*
X118862833Y-60656003D01*
X119488520Y-60780460D01*
X121663000Y-60780460D01*
X121663000Y-62186462D01*
X121575339Y-62242870D01*
X121430349Y-62455070D01*
X121379340Y-62706960D01*
X121379340Y-65246960D01*
X121423618Y-65482277D01*
X121562690Y-65698401D01*
X121774890Y-65843391D01*
X122026780Y-65894400D01*
X124566780Y-65894400D01*
X124802097Y-65850122D01*
X125018221Y-65711050D01*
X125163211Y-65498850D01*
X125214220Y-65246960D01*
X125214220Y-62706960D01*
X125169942Y-62471643D01*
X125030870Y-62255519D01*
X124933000Y-62188647D01*
X124933000Y-59924005D01*
X124933001Y-59924000D01*
X124932493Y-59921449D01*
X124932774Y-59600306D01*
X124809054Y-59300880D01*
X124808543Y-59298312D01*
X124807101Y-59296154D01*
X124684462Y-58999345D01*
X124455577Y-58770060D01*
X124454120Y-58767880D01*
X124454117Y-58767878D01*
X123675580Y-57989340D01*
X123145148Y-57634917D01*
X122519460Y-57510459D01*
X122519455Y-57510460D01*
X121123520Y-57510460D01*
X121123520Y-55589460D01*
X120999063Y-54963773D01*
X120644640Y-54433340D01*
X120114207Y-54078917D01*
X119488520Y-53954460D01*
X118862833Y-54078917D01*
X118332400Y-54433340D01*
X117977977Y-54963773D01*
X117853520Y-55589460D01*
X110825590Y-55589460D01*
X110825590Y-54739830D01*
X110781312Y-54504513D01*
X110642240Y-54288389D01*
X110430040Y-54143399D01*
X110178150Y-54092390D01*
X108478890Y-54092390D01*
X108243573Y-54136668D01*
X108027449Y-54275740D01*
X107882459Y-54487940D01*
X107831450Y-54739830D01*
X107831450Y-56439090D01*
X107875728Y-56674407D01*
X108014800Y-56890531D01*
X108032954Y-56902935D01*
X107465294Y-57282234D01*
X106894097Y-58137089D01*
X106693521Y-59145460D01*
X106894097Y-60153831D01*
X107465294Y-61008686D01*
X108602526Y-62145918D01*
X108385744Y-62062699D01*
X107628148Y-62082524D01*
X107020300Y-62334303D01*
X106888608Y-62629183D01*
X108056780Y-63797355D01*
X108070923Y-63783213D01*
X108250528Y-63962818D01*
X108236385Y-63976960D01*
X109404557Y-65145132D01*
X109699437Y-65013440D01*
X109971041Y-64305924D01*
X109951216Y-63548328D01*
X109913230Y-63456622D01*
X115329000Y-68872392D01*
X115329000Y-68992000D01*
X115529577Y-70000371D01*
X116100774Y-70855226D01*
X116679401Y-71241853D01*
X122187000Y-76749453D01*
X122187000Y-99280000D01*
X122205000Y-99370492D01*
X122205000Y-100890000D01*
X122405577Y-101898371D01*
X122976774Y-102753226D01*
X123831629Y-103324423D01*
X124840000Y-103525000D01*
X125848371Y-103324423D01*
X126703226Y-102753226D01*
X127264673Y-101912963D01*
X127239141Y-112760475D01*
X127033786Y-113055137D01*
X125595434Y-113975947D01*
X123775164Y-114301061D01*
X123645027Y-114352000D01*
X36255259Y-114352000D01*
X36138514Y-114303642D01*
X34363610Y-113950592D01*
X32976349Y-113023654D01*
X32049408Y-111636390D01*
X32010344Y-111440000D01*
X40699000Y-111440000D01*
X40899577Y-112448371D01*
X41470774Y-113303226D01*
X42325629Y-113874423D01*
X43334000Y-114075000D01*
X63312000Y-114075000D01*
X64320371Y-113874423D01*
X65175226Y-113303226D01*
X66761791Y-111716661D01*
X81976758Y-111716661D01*
X82188990Y-112230303D01*
X82581630Y-112623629D01*
X83094900Y-112836757D01*
X83650661Y-112837242D01*
X84164303Y-112625010D01*
X84557629Y-112232370D01*
X84770757Y-111719100D01*
X84771242Y-111163339D01*
X84559010Y-110649697D01*
X84166370Y-110256371D01*
X83653100Y-110043243D01*
X83097339Y-110042758D01*
X82583697Y-110254990D01*
X82190371Y-110647630D01*
X81977243Y-111160900D01*
X81976758Y-111716661D01*
X66761791Y-111716661D01*
X69388239Y-109090213D01*
X93559392Y-109090213D01*
X93628857Y-109332397D01*
X94152302Y-109519144D01*
X94707368Y-109491362D01*
X95091143Y-109332397D01*
X95160608Y-109090213D01*
X124039392Y-109090213D01*
X124108857Y-109332397D01*
X124632302Y-109519144D01*
X125187368Y-109491362D01*
X125571143Y-109332397D01*
X125640608Y-109090213D01*
X124840000Y-108289605D01*
X124039392Y-109090213D01*
X95160608Y-109090213D01*
X94360000Y-108289605D01*
X93559392Y-109090213D01*
X69388239Y-109090213D01*
X70576150Y-107902302D01*
X92950856Y-107902302D01*
X92978638Y-108457368D01*
X93137603Y-108841143D01*
X93379787Y-108910608D01*
X94180395Y-108110000D01*
X94539605Y-108110000D01*
X95340213Y-108910608D01*
X95582397Y-108841143D01*
X95769144Y-108317698D01*
X95748353Y-107902302D01*
X123430856Y-107902302D01*
X123458638Y-108457368D01*
X123617603Y-108841143D01*
X123859787Y-108910608D01*
X124660395Y-108110000D01*
X125019605Y-108110000D01*
X125820213Y-108910608D01*
X126062397Y-108841143D01*
X126249144Y-108317698D01*
X126221362Y-107762632D01*
X126062397Y-107378857D01*
X125820213Y-107309392D01*
X125019605Y-108110000D01*
X124660395Y-108110000D01*
X123859787Y-107309392D01*
X123617603Y-107378857D01*
X123430856Y-107902302D01*
X95748353Y-107902302D01*
X95741362Y-107762632D01*
X95582397Y-107378857D01*
X95340213Y-107309392D01*
X94539605Y-108110000D01*
X94180395Y-108110000D01*
X93379787Y-107309392D01*
X93137603Y-107378857D01*
X92950856Y-107902302D01*
X70576150Y-107902302D01*
X71348665Y-107129787D01*
X93559392Y-107129787D01*
X94360000Y-107930395D01*
X95160608Y-107129787D01*
X124039392Y-107129787D01*
X124840000Y-107930395D01*
X125640608Y-107129787D01*
X125571143Y-106887603D01*
X125047698Y-106700856D01*
X124492632Y-106728638D01*
X124108857Y-106887603D01*
X124039392Y-107129787D01*
X95160608Y-107129787D01*
X95091143Y-106887603D01*
X94567698Y-106700856D01*
X94012632Y-106728638D01*
X93628857Y-106887603D01*
X93559392Y-107129787D01*
X71348665Y-107129787D01*
X76911791Y-101566661D01*
X92962758Y-101566661D01*
X93174990Y-102080303D01*
X93567630Y-102473629D01*
X94080900Y-102686757D01*
X94636661Y-102687242D01*
X95150303Y-102475010D01*
X95543629Y-102082370D01*
X95756757Y-101569100D01*
X95757242Y-101013339D01*
X95545010Y-100499697D01*
X95152370Y-100106371D01*
X94639100Y-99893243D01*
X94083339Y-99892758D01*
X93569697Y-100104990D01*
X93176371Y-100497630D01*
X92963243Y-101010900D01*
X92962758Y-101566661D01*
X76911791Y-101566661D01*
X80603226Y-97875226D01*
X81174423Y-97020371D01*
X81375000Y-96012000D01*
X81209548Y-95180213D01*
X82573392Y-95180213D01*
X82642857Y-95422397D01*
X83166302Y-95609144D01*
X83721368Y-95581362D01*
X84105143Y-95422397D01*
X84174608Y-95180213D01*
X83374000Y-94379605D01*
X82573392Y-95180213D01*
X81209548Y-95180213D01*
X81174423Y-95003629D01*
X80817213Y-94469027D01*
X81293938Y-93992302D01*
X81964856Y-93992302D01*
X81992638Y-94547368D01*
X82151603Y-94931143D01*
X82393787Y-95000608D01*
X83194395Y-94200000D01*
X83553605Y-94200000D01*
X84354213Y-95000608D01*
X84596397Y-94931143D01*
X84666349Y-94735070D01*
X115621780Y-94735070D01*
X115636740Y-94809277D01*
X115898370Y-95290026D01*
X116324059Y-95634059D01*
X116849000Y-95789000D01*
X117837000Y-95789000D01*
X117837000Y-94519000D01*
X118091000Y-94519000D01*
X118091000Y-95789000D01*
X119079000Y-95789000D01*
X119603941Y-95634059D01*
X120029630Y-95290026D01*
X120291260Y-94809277D01*
X120306220Y-94735070D01*
X120183720Y-94519000D01*
X118091000Y-94519000D01*
X117837000Y-94519000D01*
X115744280Y-94519000D01*
X115621780Y-94735070D01*
X84666349Y-94735070D01*
X84783144Y-94407698D01*
X84765188Y-94048930D01*
X115621780Y-94048930D01*
X115744280Y-94265000D01*
X117837000Y-94265000D01*
X117837000Y-92995000D01*
X118091000Y-92995000D01*
X118091000Y-94265000D01*
X120183720Y-94265000D01*
X120306220Y-94048930D01*
X120291260Y-93974723D01*
X120029630Y-93493974D01*
X119603941Y-93149941D01*
X119079000Y-92995000D01*
X118091000Y-92995000D01*
X117837000Y-92995000D01*
X116849000Y-92995000D01*
X116324059Y-93149941D01*
X115898370Y-93493974D01*
X115636740Y-93974723D01*
X115621780Y-94048930D01*
X84765188Y-94048930D01*
X84755362Y-93852632D01*
X84596397Y-93468857D01*
X84354213Y-93399392D01*
X83553605Y-94200000D01*
X83194395Y-94200000D01*
X82393787Y-93399392D01*
X82151603Y-93468857D01*
X81964856Y-93992302D01*
X81293938Y-93992302D01*
X82066453Y-93219787D01*
X82573392Y-93219787D01*
X83374000Y-94020395D01*
X84174608Y-93219787D01*
X84105143Y-92977603D01*
X83581698Y-92790856D01*
X83026632Y-92818638D01*
X82642857Y-92977603D01*
X82573392Y-93219787D01*
X82066453Y-93219787D01*
X83052120Y-92234120D01*
X83406543Y-91703688D01*
X83531001Y-91078000D01*
X83531000Y-91077995D01*
X83531000Y-89628000D01*
X83406543Y-89002313D01*
X83052120Y-88471880D01*
X82521687Y-88117457D01*
X81896000Y-87993000D01*
X81270313Y-88117457D01*
X80739880Y-88471880D01*
X80475618Y-88867377D01*
X80336213Y-88827392D01*
X79535605Y-89628000D01*
X79549748Y-89642143D01*
X79370143Y-89821748D01*
X79356000Y-89807605D01*
X78555392Y-90608213D01*
X78624857Y-90850397D01*
X79148302Y-91037144D01*
X79649712Y-91012048D01*
X77583880Y-93077880D01*
X77229457Y-93608312D01*
X77159533Y-93959840D01*
X76876774Y-94148774D01*
X62220548Y-108805000D01*
X43334000Y-108805000D01*
X42325629Y-109005577D01*
X41470774Y-109576774D01*
X40899577Y-110431629D01*
X40699000Y-111440000D01*
X32010344Y-111440000D01*
X31769337Y-110228379D01*
X31804756Y-95180213D01*
X42533392Y-95180213D01*
X42602857Y-95422397D01*
X43126302Y-95609144D01*
X43681368Y-95581362D01*
X44065143Y-95422397D01*
X44134608Y-95180213D01*
X43334000Y-94379605D01*
X42533392Y-95180213D01*
X31804756Y-95180213D01*
X31807552Y-93992302D01*
X41924856Y-93992302D01*
X41952638Y-94547368D01*
X42111603Y-94931143D01*
X42353787Y-95000608D01*
X43154395Y-94200000D01*
X43513605Y-94200000D01*
X44314213Y-95000608D01*
X44556397Y-94931143D01*
X44743144Y-94407698D01*
X44715362Y-93852632D01*
X44556397Y-93468857D01*
X44314213Y-93399392D01*
X43513605Y-94200000D01*
X43154395Y-94200000D01*
X42353787Y-93399392D01*
X42111603Y-93468857D01*
X41924856Y-93992302D01*
X31807552Y-93992302D01*
X31809370Y-93219787D01*
X42533392Y-93219787D01*
X43334000Y-94020395D01*
X44134608Y-93219787D01*
X44065143Y-92977603D01*
X43541698Y-92790856D01*
X42986632Y-92818638D01*
X42602857Y-92977603D01*
X42533392Y-93219787D01*
X31809370Y-93219787D01*
X31845758Y-77760168D01*
X32237709Y-78708761D01*
X32987293Y-79459655D01*
X33967173Y-79866536D01*
X35028172Y-79867462D01*
X36008761Y-79462291D01*
X36759655Y-78712707D01*
X37166536Y-77732827D01*
X37167462Y-76671828D01*
X36762291Y-75691239D01*
X36012707Y-74940345D01*
X35032827Y-74533464D01*
X33971828Y-74532538D01*
X32991239Y-74937709D01*
X32240345Y-75687293D01*
X31848416Y-76631165D01*
X31864945Y-69608302D01*
X43402856Y-69608302D01*
X43430638Y-70163368D01*
X43589603Y-70547143D01*
X43831787Y-70616608D01*
X44632395Y-69816000D01*
X43831787Y-69015392D01*
X43589603Y-69084857D01*
X43402856Y-69608302D01*
X31864945Y-69608302D01*
X31870604Y-67204184D01*
X43178578Y-67204184D01*
X43275432Y-67834734D01*
X43606215Y-68380223D01*
X44048900Y-68705020D01*
X44011392Y-68835787D01*
X44812000Y-69636395D01*
X45612608Y-68835787D01*
X45571098Y-68691068D01*
X45916223Y-68481785D01*
X46198155Y-68097523D01*
X46559630Y-68459629D01*
X46767512Y-68545949D01*
X46561697Y-68630990D01*
X46168371Y-69023630D01*
X46088605Y-69215727D01*
X46034397Y-69084857D01*
X45792213Y-69015392D01*
X44991605Y-69816000D01*
X45792213Y-70616608D01*
X46034397Y-70547143D01*
X46084509Y-70406682D01*
X46166990Y-70606303D01*
X46398283Y-70838000D01*
X45600622Y-70838000D01*
X45612608Y-70796213D01*
X44812000Y-69995605D01*
X44011392Y-70796213D01*
X44038524Y-70890807D01*
X43917490Y-70914882D01*
X43589822Y-71133822D01*
X43370882Y-71461490D01*
X43294000Y-71848000D01*
X43294000Y-74896000D01*
X43370882Y-75282510D01*
X43589822Y-75610178D01*
X45326000Y-77346356D01*
X45326000Y-88662304D01*
X45152371Y-88835630D01*
X44939243Y-89348900D01*
X44938758Y-89904661D01*
X45150990Y-90418303D01*
X45543630Y-90811629D01*
X46056900Y-91024757D01*
X46612661Y-91025242D01*
X47126303Y-90813010D01*
X47519629Y-90420370D01*
X47605949Y-90212488D01*
X47690990Y-90418303D01*
X48083630Y-90811629D01*
X48596900Y-91024757D01*
X49152661Y-91025242D01*
X49666303Y-90813010D01*
X50059629Y-90420370D01*
X50145949Y-90212488D01*
X50230990Y-90418303D01*
X50623630Y-90811629D01*
X51136900Y-91024757D01*
X51692661Y-91025242D01*
X52206303Y-90813010D01*
X52599629Y-90420370D01*
X52685949Y-90212488D01*
X52770990Y-90418303D01*
X53163630Y-90811629D01*
X53676900Y-91024757D01*
X54232661Y-91025242D01*
X54746303Y-90813010D01*
X55139629Y-90420370D01*
X55225949Y-90212488D01*
X55310990Y-90418303D01*
X55703630Y-90811629D01*
X56216900Y-91024757D01*
X56772661Y-91025242D01*
X57286303Y-90813010D01*
X57679629Y-90420370D01*
X57765949Y-90212488D01*
X57850990Y-90418303D01*
X58243630Y-90811629D01*
X58756900Y-91024757D01*
X59312661Y-91025242D01*
X59826303Y-90813010D01*
X60219629Y-90420370D01*
X60305949Y-90212488D01*
X60390990Y-90418303D01*
X60783630Y-90811629D01*
X61296900Y-91024757D01*
X61852661Y-91025242D01*
X62366303Y-90813010D01*
X62759629Y-90420370D01*
X62845949Y-90212488D01*
X62930990Y-90418303D01*
X63323630Y-90811629D01*
X63836900Y-91024757D01*
X64392661Y-91025242D01*
X64906303Y-90813010D01*
X65299629Y-90420370D01*
X65385949Y-90212488D01*
X65470990Y-90418303D01*
X65863630Y-90811629D01*
X66376900Y-91024757D01*
X66932661Y-91025242D01*
X67446303Y-90813010D01*
X67839629Y-90420370D01*
X67925949Y-90212488D01*
X68010990Y-90418303D01*
X68403630Y-90811629D01*
X68916900Y-91024757D01*
X69472661Y-91025242D01*
X69986303Y-90813010D01*
X70379629Y-90420370D01*
X70465949Y-90212488D01*
X70550990Y-90418303D01*
X70943630Y-90811629D01*
X71456900Y-91024757D01*
X72012661Y-91025242D01*
X72526303Y-90813010D01*
X72919629Y-90420370D01*
X73005949Y-90212488D01*
X73090990Y-90418303D01*
X73483630Y-90811629D01*
X73996900Y-91024757D01*
X74552661Y-91025242D01*
X75066303Y-90813010D01*
X75459629Y-90420370D01*
X75545949Y-90212488D01*
X75630990Y-90418303D01*
X76023630Y-90811629D01*
X76536900Y-91024757D01*
X77092661Y-91025242D01*
X77606303Y-90813010D01*
X77999629Y-90420370D01*
X78079395Y-90228273D01*
X78133603Y-90359143D01*
X78375787Y-90428608D01*
X79176395Y-89628000D01*
X78375787Y-88827392D01*
X78133603Y-88896857D01*
X78083491Y-89037318D01*
X78001010Y-88837697D01*
X77950612Y-88787211D01*
X77950548Y-88647787D01*
X78555392Y-88647787D01*
X79356000Y-89448395D01*
X80156608Y-88647787D01*
X80087143Y-88405603D01*
X79563698Y-88218856D01*
X79008632Y-88246638D01*
X78624857Y-88405603D01*
X78555392Y-88647787D01*
X77950548Y-88647787D01*
X77950127Y-87733016D01*
X89384590Y-87733016D01*
X89440271Y-87963611D01*
X89923078Y-88131622D01*
X90433428Y-88102083D01*
X90767729Y-87963611D01*
X90823410Y-87733016D01*
X90104000Y-87013605D01*
X89384590Y-87733016D01*
X77950127Y-87733016D01*
X77949628Y-86653078D01*
X88806378Y-86653078D01*
X88835917Y-87163428D01*
X88974389Y-87497729D01*
X89204984Y-87553410D01*
X89924395Y-86834000D01*
X90283605Y-86834000D01*
X91003016Y-87553410D01*
X91233611Y-87497729D01*
X91401622Y-87014922D01*
X91372083Y-86504572D01*
X91239298Y-86184000D01*
X93806560Y-86184000D01*
X93806560Y-87484000D01*
X93850838Y-87719317D01*
X93989910Y-87935441D01*
X94202110Y-88080431D01*
X94454000Y-88131440D01*
X95754000Y-88131440D01*
X95989317Y-88087162D01*
X96205441Y-87948090D01*
X96350431Y-87735890D01*
X96401440Y-87484000D01*
X96401440Y-86184000D01*
X96357162Y-85948683D01*
X96218090Y-85732559D01*
X96005890Y-85587569D01*
X95754000Y-85536560D01*
X94454000Y-85536560D01*
X94218683Y-85580838D01*
X94002559Y-85719910D01*
X93857569Y-85932110D01*
X93806560Y-86184000D01*
X91239298Y-86184000D01*
X91233611Y-86170271D01*
X91003016Y-86114590D01*
X90283605Y-86834000D01*
X89924395Y-86834000D01*
X89204984Y-86114590D01*
X88974389Y-86170271D01*
X88806378Y-86653078D01*
X77949628Y-86653078D01*
X77949303Y-85950139D01*
X77960968Y-85934984D01*
X89384590Y-85934984D01*
X90104000Y-86654395D01*
X90823410Y-85934984D01*
X90767729Y-85704389D01*
X90284922Y-85536378D01*
X89774572Y-85565917D01*
X89440271Y-85704389D01*
X89384590Y-85934984D01*
X77960968Y-85934984D01*
X80210550Y-83012582D01*
X85483132Y-77740000D01*
X99444560Y-77740000D01*
X99444560Y-79740000D01*
X99488838Y-79975317D01*
X99627910Y-80191441D01*
X99840110Y-80336431D01*
X100092000Y-80387440D01*
X102092000Y-80387440D01*
X102327317Y-80343162D01*
X102543441Y-80204090D01*
X102688431Y-79991890D01*
X102739440Y-79740000D01*
X102739440Y-77740000D01*
X102695162Y-77504683D01*
X102556090Y-77288559D01*
X102413439Y-77191090D01*
X102477278Y-77127363D01*
X102726716Y-76526648D01*
X102727284Y-75876205D01*
X102478894Y-75275057D01*
X102154241Y-74949836D01*
X102477278Y-74627363D01*
X102726716Y-74026648D01*
X102727284Y-73376205D01*
X102478894Y-72775057D01*
X102019363Y-72314722D01*
X101418648Y-72065284D01*
X100768205Y-72064716D01*
X100167057Y-72313106D01*
X99706722Y-72772637D01*
X99457284Y-73373352D01*
X99456716Y-74023795D01*
X99705106Y-74624943D01*
X100029759Y-74950164D01*
X99706722Y-75272637D01*
X99457284Y-75873352D01*
X99456716Y-76523795D01*
X99705106Y-77124943D01*
X99771621Y-77191574D01*
X99640559Y-77275910D01*
X99495569Y-77488110D01*
X99444560Y-77740000D01*
X85483132Y-77740000D01*
X89608077Y-73615055D01*
X89620012Y-73632917D01*
X90053118Y-73922308D01*
X90564000Y-74023929D01*
X91074882Y-73922308D01*
X91507988Y-73632917D01*
X91564000Y-73549089D01*
X91620012Y-73632917D01*
X92053118Y-73922308D01*
X92564000Y-74023929D01*
X93074882Y-73922308D01*
X93507988Y-73632917D01*
X93579490Y-73525906D01*
X93709815Y-73685790D01*
X94170450Y-73933980D01*
X94230671Y-73944716D01*
X94437000Y-73821374D01*
X94437000Y-72229000D01*
X94691000Y-72229000D01*
X94691000Y-73821374D01*
X94897329Y-73944716D01*
X94957550Y-73933980D01*
X95418185Y-73685790D01*
X95748778Y-73280215D01*
X95899000Y-72779000D01*
X95899000Y-72229000D01*
X94691000Y-72229000D01*
X94437000Y-72229000D01*
X94417000Y-72229000D01*
X94417000Y-71975000D01*
X94437000Y-71975000D01*
X94437000Y-70382626D01*
X94691000Y-70382626D01*
X94691000Y-71975000D01*
X95899000Y-71975000D01*
X95899000Y-71425000D01*
X95748778Y-70923785D01*
X95418185Y-70518210D01*
X94957550Y-70270020D01*
X94897329Y-70259284D01*
X94691000Y-70382626D01*
X94437000Y-70382626D01*
X94230671Y-70259284D01*
X94199000Y-70264930D01*
X94199000Y-68715240D01*
X97589502Y-65324737D01*
X106888608Y-65324737D01*
X107020300Y-65619617D01*
X107727816Y-65891221D01*
X108485412Y-65871396D01*
X109093260Y-65619617D01*
X109224952Y-65324737D01*
X108056780Y-64156565D01*
X106888608Y-65324737D01*
X97589502Y-65324737D01*
X99083239Y-63831000D01*
X100946000Y-63831000D01*
X100948546Y-63830493D01*
X101269694Y-63830774D01*
X101569120Y-63707054D01*
X101571687Y-63706543D01*
X101573844Y-63705102D01*
X101712050Y-63647996D01*
X106142519Y-63647996D01*
X106162344Y-64405592D01*
X106414123Y-65013440D01*
X106709003Y-65145132D01*
X107877175Y-63976960D01*
X106709003Y-62808788D01*
X106414123Y-62940480D01*
X106142519Y-63647996D01*
X101712050Y-63647996D01*
X101870655Y-63582462D01*
X102099940Y-63353577D01*
X102102120Y-63352120D01*
X102103564Y-63349959D01*
X102330846Y-63123073D01*
X102455088Y-62823864D01*
X102456543Y-62821687D01*
X102457049Y-62819141D01*
X102580206Y-62522547D01*
X102580489Y-62198569D01*
X102581000Y-62196000D01*
X102580493Y-62193454D01*
X102580774Y-61872306D01*
X102457054Y-61572880D01*
X102456543Y-61570313D01*
X102455102Y-61568156D01*
X102332462Y-61271345D01*
X102103577Y-61042060D01*
X102102120Y-61039880D01*
X102099959Y-61038436D01*
X101873073Y-60811154D01*
X101573864Y-60686912D01*
X101571687Y-60685457D01*
X101569141Y-60684951D01*
X101272547Y-60561794D01*
X100948569Y-60561511D01*
X100946000Y-60561000D01*
X98406005Y-60561000D01*
X98406000Y-60560999D01*
X97780313Y-60685457D01*
X97249880Y-61039880D01*
X97249878Y-61039883D01*
X91407880Y-66881880D01*
X91053457Y-67412312D01*
X90928999Y-68038000D01*
X90929000Y-68038005D01*
X90929000Y-70252674D01*
X90564000Y-70180071D01*
X90053118Y-70281692D01*
X89620012Y-70571083D01*
X89330864Y-71003826D01*
X89081654Y-71053397D01*
X88776764Y-71257118D01*
X88713434Y-71299434D01*
X78553434Y-81459434D01*
X78512320Y-81520965D01*
X78456607Y-81569673D01*
X75914732Y-84871791D01*
X75848368Y-85005845D01*
X75765322Y-85130256D01*
X75750969Y-85202588D01*
X75718252Y-85268675D01*
X75708240Y-85417920D01*
X75679125Y-85564642D01*
X75680612Y-88787473D01*
X75632371Y-88835630D01*
X75546051Y-89043512D01*
X75461010Y-88837697D01*
X75068370Y-88444371D01*
X74555100Y-88231243D01*
X73999339Y-88230758D01*
X73485697Y-88442990D01*
X73092371Y-88835630D01*
X73006051Y-89043512D01*
X72921010Y-88837697D01*
X72528370Y-88444371D01*
X72015100Y-88231243D01*
X71459339Y-88230758D01*
X70945697Y-88442990D01*
X70552371Y-88835630D01*
X70466051Y-89043512D01*
X70381010Y-88837697D01*
X69988370Y-88444371D01*
X69475100Y-88231243D01*
X68919339Y-88230758D01*
X68405697Y-88442990D01*
X68012371Y-88835630D01*
X67926051Y-89043512D01*
X67841010Y-88837697D01*
X67448370Y-88444371D01*
X66935100Y-88231243D01*
X66379339Y-88230758D01*
X65865697Y-88442990D01*
X65472371Y-88835630D01*
X65386051Y-89043512D01*
X65301010Y-88837697D01*
X64908370Y-88444371D01*
X64395100Y-88231243D01*
X63839339Y-88230758D01*
X63325697Y-88442990D01*
X62932371Y-88835630D01*
X62846051Y-89043512D01*
X62761010Y-88837697D01*
X62368370Y-88444371D01*
X61855100Y-88231243D01*
X61299339Y-88230758D01*
X60785697Y-88442990D01*
X60392371Y-88835630D01*
X60306051Y-89043512D01*
X60221010Y-88837697D01*
X59828370Y-88444371D01*
X59315100Y-88231243D01*
X58759339Y-88230758D01*
X58245697Y-88442990D01*
X57852371Y-88835630D01*
X57766051Y-89043512D01*
X57681010Y-88837697D01*
X57288370Y-88444371D01*
X56775100Y-88231243D01*
X56219339Y-88230758D01*
X55705697Y-88442990D01*
X55312371Y-88835630D01*
X55226051Y-89043512D01*
X55141010Y-88837697D01*
X54748370Y-88444371D01*
X54235100Y-88231243D01*
X53679339Y-88230758D01*
X53165697Y-88442990D01*
X52772371Y-88835630D01*
X52686051Y-89043512D01*
X52601010Y-88837697D01*
X52208370Y-88444371D01*
X51695100Y-88231243D01*
X51139339Y-88230758D01*
X50625697Y-88442990D01*
X50232371Y-88835630D01*
X50146051Y-89043512D01*
X50061010Y-88837697D01*
X49668370Y-88444371D01*
X49155100Y-88231243D01*
X48599339Y-88230758D01*
X48085697Y-88442990D01*
X47692371Y-88835630D01*
X47606051Y-89043512D01*
X47521010Y-88837697D01*
X47346000Y-88662381D01*
X47346000Y-76928000D01*
X47269118Y-76541490D01*
X47050178Y-76213822D01*
X46618985Y-75782629D01*
X47126303Y-75573010D01*
X47519629Y-75180370D01*
X47605949Y-74972488D01*
X47690990Y-75178303D01*
X48083630Y-75571629D01*
X48596900Y-75784757D01*
X49152661Y-75785242D01*
X49666303Y-75573010D01*
X50059629Y-75180370D01*
X50145949Y-74972488D01*
X50230990Y-75178303D01*
X50623630Y-75571629D01*
X51136900Y-75784757D01*
X51692661Y-75785242D01*
X52206303Y-75573010D01*
X52599629Y-75180370D01*
X52685949Y-74972488D01*
X52770990Y-75178303D01*
X53163630Y-75571629D01*
X53676900Y-75784757D01*
X54232661Y-75785242D01*
X54746303Y-75573010D01*
X55139629Y-75180370D01*
X55225949Y-74972488D01*
X55310990Y-75178303D01*
X55703630Y-75571629D01*
X56216900Y-75784757D01*
X56772661Y-75785242D01*
X57286303Y-75573010D01*
X57679629Y-75180370D01*
X57765949Y-74972488D01*
X57850990Y-75178303D01*
X58243630Y-75571629D01*
X58756900Y-75784757D01*
X59312661Y-75785242D01*
X59826303Y-75573010D01*
X60219629Y-75180370D01*
X60305949Y-74972488D01*
X60390990Y-75178303D01*
X60783630Y-75571629D01*
X61296900Y-75784757D01*
X61852661Y-75785242D01*
X62366303Y-75573010D01*
X62759629Y-75180370D01*
X62845949Y-74972488D01*
X62930990Y-75178303D01*
X63323630Y-75571629D01*
X63836900Y-75784757D01*
X64392661Y-75785242D01*
X64906303Y-75573010D01*
X65299629Y-75180370D01*
X65385949Y-74972488D01*
X65470990Y-75178303D01*
X65863630Y-75571629D01*
X66376900Y-75784757D01*
X66932661Y-75785242D01*
X67446303Y-75573010D01*
X67839629Y-75180370D01*
X67925949Y-74972488D01*
X68010990Y-75178303D01*
X68403630Y-75571629D01*
X68916900Y-75784757D01*
X69472661Y-75785242D01*
X69986303Y-75573010D01*
X70379629Y-75180370D01*
X70465949Y-74972488D01*
X70550990Y-75178303D01*
X70943630Y-75571629D01*
X71456900Y-75784757D01*
X72012661Y-75785242D01*
X72526303Y-75573010D01*
X72731457Y-75368213D01*
X73475392Y-75368213D01*
X73544857Y-75610397D01*
X74068302Y-75797144D01*
X74623368Y-75769362D01*
X75007143Y-75610397D01*
X75076608Y-75368213D01*
X74276000Y-74567605D01*
X73475392Y-75368213D01*
X72731457Y-75368213D01*
X72919629Y-75180370D01*
X72999395Y-74988273D01*
X73053603Y-75119143D01*
X73295787Y-75188608D01*
X74096395Y-74388000D01*
X74455605Y-74388000D01*
X75256213Y-75188608D01*
X75498397Y-75119143D01*
X75548509Y-74978682D01*
X75630990Y-75178303D01*
X76023630Y-75571629D01*
X76536900Y-75784757D01*
X77092661Y-75785242D01*
X77606303Y-75573010D01*
X77999629Y-75180370D01*
X78085949Y-74972488D01*
X78170990Y-75178303D01*
X78563630Y-75571629D01*
X79076900Y-75784757D01*
X79632661Y-75785242D01*
X80146303Y-75573010D01*
X80539629Y-75180370D01*
X80625949Y-74972488D01*
X80710990Y-75178303D01*
X81103630Y-75571629D01*
X81616900Y-75784757D01*
X82172661Y-75785242D01*
X82686303Y-75573010D01*
X83079629Y-75180370D01*
X83292757Y-74667100D01*
X83293242Y-74111339D01*
X83081010Y-73597697D01*
X82688370Y-73204371D01*
X82175100Y-72991243D01*
X81619339Y-72990758D01*
X81105697Y-73202990D01*
X80712371Y-73595630D01*
X80626051Y-73803512D01*
X80541010Y-73597697D01*
X80148370Y-73204371D01*
X79635100Y-72991243D01*
X79079339Y-72990758D01*
X78565697Y-73202990D01*
X78172371Y-73595630D01*
X78086051Y-73803512D01*
X78001010Y-73597697D01*
X77608370Y-73204371D01*
X77095100Y-72991243D01*
X76539339Y-72990758D01*
X76025697Y-73202990D01*
X75632371Y-73595630D01*
X75552605Y-73787727D01*
X75498397Y-73656857D01*
X75256213Y-73587392D01*
X74455605Y-74388000D01*
X74096395Y-74388000D01*
X73295787Y-73587392D01*
X73053603Y-73656857D01*
X73003491Y-73797318D01*
X72921010Y-73597697D01*
X72731432Y-73407787D01*
X73475392Y-73407787D01*
X74276000Y-74208395D01*
X75076608Y-73407787D01*
X75007143Y-73165603D01*
X74483698Y-72978856D01*
X73928632Y-73006638D01*
X73544857Y-73165603D01*
X73475392Y-73407787D01*
X72731432Y-73407787D01*
X72528370Y-73204371D01*
X72015100Y-72991243D01*
X71459339Y-72990758D01*
X70945697Y-73202990D01*
X70552371Y-73595630D01*
X70466051Y-73803512D01*
X70381010Y-73597697D01*
X69988370Y-73204371D01*
X69475100Y-72991243D01*
X69037495Y-72990861D01*
X69231611Y-72796745D01*
X77748369Y-70302888D01*
X77781335Y-70306720D01*
X78160399Y-70198962D01*
X78330118Y-70064594D01*
X78383157Y-70036900D01*
X78418631Y-69994517D01*
X78469371Y-69954346D01*
X79727942Y-68474535D01*
X79784560Y-68372942D01*
X79856880Y-68281860D01*
X79879577Y-68202446D01*
X79919784Y-68130300D01*
X79933214Y-68014777D01*
X79965175Y-67902949D01*
X80105933Y-66190927D01*
X80101215Y-66149835D01*
X80109328Y-66109281D01*
X80109963Y-65533393D01*
X80112266Y-65498000D01*
X81023000Y-65498000D01*
X81023507Y-65500546D01*
X81023226Y-65821694D01*
X81146946Y-66121120D01*
X81147457Y-66123687D01*
X81148898Y-66125844D01*
X81271538Y-66422655D01*
X81500423Y-66651940D01*
X81501880Y-66654120D01*
X81504041Y-66655564D01*
X81730927Y-66882846D01*
X82030136Y-67007088D01*
X82032313Y-67008543D01*
X82034859Y-67009049D01*
X82331453Y-67132206D01*
X82655431Y-67132489D01*
X82658000Y-67133000D01*
X88499995Y-67133000D01*
X88500000Y-67133001D01*
X89125688Y-67008543D01*
X89656120Y-66654120D01*
X91434117Y-64876122D01*
X91434120Y-64876120D01*
X91788543Y-64345687D01*
X91829512Y-64139724D01*
X91913001Y-63720000D01*
X91913000Y-63719995D01*
X91913000Y-60046163D01*
X99987443Y-60046163D01*
X100086042Y-60312965D01*
X100695582Y-60539401D01*
X101345377Y-60515341D01*
X101833958Y-60312965D01*
X101932557Y-60046163D01*
X100960000Y-59073605D01*
X99987443Y-60046163D01*
X91913000Y-60046163D01*
X91913000Y-58629582D01*
X99314599Y-58629582D01*
X99338659Y-59279377D01*
X99541035Y-59767958D01*
X99807837Y-59866557D01*
X100780395Y-58894000D01*
X101139605Y-58894000D01*
X102112163Y-59866557D01*
X102378965Y-59767958D01*
X102605401Y-59158418D01*
X102581341Y-58508623D01*
X102378965Y-58020042D01*
X102112163Y-57921443D01*
X101139605Y-58894000D01*
X100780395Y-58894000D01*
X99807837Y-57921443D01*
X99541035Y-58020042D01*
X99314599Y-58629582D01*
X91913000Y-58629582D01*
X91913000Y-57741837D01*
X99987443Y-57741837D01*
X100960000Y-58714395D01*
X101932557Y-57741837D01*
X101833958Y-57475035D01*
X101224418Y-57248599D01*
X100574623Y-57272659D01*
X100086042Y-57475035D01*
X99987443Y-57741837D01*
X91913000Y-57741837D01*
X91913000Y-55810213D01*
X93033392Y-55810213D01*
X93102857Y-56052397D01*
X93626302Y-56239144D01*
X94181368Y-56211362D01*
X94565143Y-56052397D01*
X94634608Y-55810213D01*
X93834000Y-55009605D01*
X93033392Y-55810213D01*
X91913000Y-55810213D01*
X91913000Y-54622302D01*
X92424856Y-54622302D01*
X92452638Y-55177368D01*
X92611603Y-55561143D01*
X92853787Y-55630608D01*
X93654395Y-54830000D01*
X94013605Y-54830000D01*
X94814213Y-55630608D01*
X95056397Y-55561143D01*
X95243144Y-55037698D01*
X95215362Y-54482632D01*
X95056397Y-54098857D01*
X94814213Y-54029392D01*
X94013605Y-54830000D01*
X93654395Y-54830000D01*
X92853787Y-54029392D01*
X92611603Y-54098857D01*
X92424856Y-54622302D01*
X91913000Y-54622302D01*
X91913000Y-48903240D01*
X91971240Y-48845000D01*
X92763198Y-48845000D01*
X92650371Y-48957630D01*
X92437243Y-49470900D01*
X92436758Y-50026661D01*
X92648990Y-50540303D01*
X93041630Y-50933629D01*
X93249512Y-51019949D01*
X93043697Y-51104990D01*
X92650371Y-51497630D01*
X92437243Y-52010900D01*
X92436758Y-52566661D01*
X92648990Y-53080303D01*
X93041630Y-53473629D01*
X93233727Y-53553395D01*
X93102857Y-53607603D01*
X93033392Y-53849787D01*
X93834000Y-54650395D01*
X94634608Y-53849787D01*
X94565143Y-53607603D01*
X94424682Y-53557491D01*
X94624303Y-53475010D01*
X95017629Y-53082370D01*
X95230757Y-52569100D01*
X95231242Y-52013339D01*
X95019010Y-51499697D01*
X94626370Y-51106371D01*
X94418488Y-51020051D01*
X94624303Y-50935010D01*
X95017629Y-50542370D01*
X95230757Y-50029100D01*
X95231242Y-49473339D01*
X95019010Y-48959697D01*
X94651999Y-48592045D01*
X94990120Y-48366120D01*
X95344543Y-47835687D01*
X95413968Y-47486661D01*
X101326758Y-47486661D01*
X101538990Y-48000303D01*
X101931630Y-48393629D01*
X102139512Y-48479949D01*
X101933697Y-48564990D01*
X101540371Y-48957630D01*
X101327243Y-49470900D01*
X101326758Y-50026661D01*
X101538990Y-50540303D01*
X101931630Y-50933629D01*
X102139512Y-51019949D01*
X101933697Y-51104990D01*
X101540371Y-51497630D01*
X101327243Y-52010900D01*
X101326758Y-52566661D01*
X101538990Y-53080303D01*
X101931630Y-53473629D01*
X102139512Y-53559949D01*
X101933697Y-53644990D01*
X101540371Y-54037630D01*
X101327243Y-54550900D01*
X101326758Y-55106661D01*
X101538990Y-55620303D01*
X101931630Y-56013629D01*
X102444900Y-56226757D01*
X103000661Y-56227242D01*
X103514303Y-56015010D01*
X103907629Y-55622370D01*
X104120757Y-55109100D01*
X104121242Y-54553339D01*
X103909010Y-54039697D01*
X103516370Y-53646371D01*
X103308488Y-53560051D01*
X103514303Y-53475010D01*
X103907629Y-53082370D01*
X104120757Y-52569100D01*
X104121242Y-52013339D01*
X103909010Y-51499697D01*
X103516370Y-51106371D01*
X103308488Y-51020051D01*
X103514303Y-50935010D01*
X103907629Y-50542370D01*
X104120757Y-50029100D01*
X104121242Y-49473339D01*
X103925663Y-49000000D01*
X106352560Y-49000000D01*
X106352560Y-51000000D01*
X106396838Y-51235317D01*
X106535910Y-51451441D01*
X106748110Y-51596431D01*
X107000000Y-51647440D01*
X109000000Y-51647440D01*
X109235317Y-51603162D01*
X109451441Y-51464090D01*
X109596431Y-51251890D01*
X109647440Y-51000000D01*
X109647440Y-49000000D01*
X109603162Y-48764683D01*
X109464090Y-48548559D01*
X109321439Y-48451090D01*
X109385278Y-48387363D01*
X109400792Y-48350000D01*
X113702560Y-48350000D01*
X113702560Y-49650000D01*
X113746838Y-49885317D01*
X113885910Y-50101441D01*
X114098110Y-50246431D01*
X114350000Y-50297440D01*
X115650000Y-50297440D01*
X115885317Y-50253162D01*
X116101441Y-50114090D01*
X116246431Y-49901890D01*
X116247012Y-49899016D01*
X118080590Y-49899016D01*
X118136271Y-50129611D01*
X118619078Y-50297622D01*
X119129428Y-50268083D01*
X119463729Y-50129611D01*
X119519410Y-49899016D01*
X118800000Y-49179605D01*
X118080590Y-49899016D01*
X116247012Y-49899016D01*
X116297440Y-49650000D01*
X116297440Y-48819078D01*
X117502378Y-48819078D01*
X117531917Y-49329428D01*
X117670389Y-49663729D01*
X117900984Y-49719410D01*
X118620395Y-49000000D01*
X118979605Y-49000000D01*
X119699016Y-49719410D01*
X119929611Y-49663729D01*
X120097622Y-49180922D01*
X120068083Y-48670572D01*
X119929611Y-48336271D01*
X119699016Y-48280590D01*
X118979605Y-49000000D01*
X118620395Y-49000000D01*
X117900984Y-48280590D01*
X117670389Y-48336271D01*
X117502378Y-48819078D01*
X116297440Y-48819078D01*
X116297440Y-48350000D01*
X116253162Y-48114683D01*
X116244347Y-48100984D01*
X118080590Y-48100984D01*
X118800000Y-48820395D01*
X119519410Y-48100984D01*
X119463729Y-47870389D01*
X118980922Y-47702378D01*
X118470572Y-47731917D01*
X118136271Y-47870389D01*
X118080590Y-48100984D01*
X116244347Y-48100984D01*
X116114090Y-47898559D01*
X115901890Y-47753569D01*
X115650000Y-47702560D01*
X114350000Y-47702560D01*
X114114683Y-47746838D01*
X113898559Y-47885910D01*
X113753569Y-48098110D01*
X113702560Y-48350000D01*
X109400792Y-48350000D01*
X109634716Y-47786648D01*
X109635284Y-47136205D01*
X109386894Y-46535057D01*
X109062241Y-46209836D01*
X109385278Y-45887363D01*
X109634716Y-45286648D01*
X109635284Y-44636205D01*
X109386894Y-44035057D01*
X108927363Y-43574722D01*
X108326648Y-43325284D01*
X107676205Y-43324716D01*
X107075057Y-43573106D01*
X106614722Y-44032637D01*
X106365284Y-44633352D01*
X106364716Y-45283795D01*
X106613106Y-45884943D01*
X106937759Y-46210164D01*
X106614722Y-46532637D01*
X106365284Y-47133352D01*
X106364716Y-47783795D01*
X106613106Y-48384943D01*
X106679621Y-48451574D01*
X106548559Y-48535910D01*
X106403569Y-48748110D01*
X106352560Y-49000000D01*
X103925663Y-49000000D01*
X103909010Y-48959697D01*
X103516370Y-48566371D01*
X103308488Y-48480051D01*
X103514303Y-48395010D01*
X103907629Y-48002370D01*
X104120757Y-47489100D01*
X104121242Y-46933339D01*
X103909010Y-46419697D01*
X103516370Y-46026371D01*
X103003100Y-45813243D01*
X102447339Y-45812758D01*
X101933697Y-46024990D01*
X101540371Y-46417630D01*
X101327243Y-46930900D01*
X101326758Y-47486661D01*
X95413968Y-47486661D01*
X95469000Y-47210000D01*
X95344543Y-46584313D01*
X94990120Y-46053880D01*
X94459687Y-45699457D01*
X93834000Y-45575000D01*
X91294005Y-45575000D01*
X91294000Y-45574999D01*
X90668312Y-45699457D01*
X90137880Y-46053880D01*
X89121880Y-47069880D01*
X88767457Y-47600312D01*
X88642999Y-48226000D01*
X88643000Y-48226005D01*
X88643000Y-63042761D01*
X87822760Y-63863000D01*
X82658000Y-63863000D01*
X82655454Y-63863507D01*
X82334306Y-63863226D01*
X82034880Y-63986946D01*
X82032313Y-63987457D01*
X82030156Y-63988898D01*
X81733345Y-64111538D01*
X81504060Y-64340423D01*
X81501880Y-64341880D01*
X81500436Y-64344041D01*
X81273154Y-64570927D01*
X81148912Y-64870136D01*
X81147457Y-64872313D01*
X81146951Y-64874859D01*
X81023794Y-65171453D01*
X81023511Y-65495431D01*
X81023000Y-65498000D01*
X80112266Y-65498000D01*
X80306120Y-62519694D01*
X84311226Y-62519694D01*
X84559538Y-63120655D01*
X85018927Y-63580846D01*
X85619453Y-63830206D01*
X86269694Y-63830774D01*
X86870655Y-63582462D01*
X87330846Y-63123073D01*
X87580206Y-62522547D01*
X87580774Y-61872306D01*
X87332462Y-61271345D01*
X86873073Y-60811154D01*
X86272547Y-60561794D01*
X85622306Y-60561226D01*
X85021345Y-60809538D01*
X84561154Y-61268927D01*
X84311794Y-61869453D01*
X84311226Y-62519694D01*
X80306120Y-62519694D01*
X80521043Y-59217694D01*
X84325226Y-59217694D01*
X84573538Y-59818655D01*
X85032927Y-60278846D01*
X85633453Y-60528206D01*
X86283694Y-60528774D01*
X86884655Y-60280462D01*
X87344846Y-59821073D01*
X87594206Y-59220547D01*
X87594774Y-58570306D01*
X87346462Y-57969345D01*
X86887073Y-57509154D01*
X86286547Y-57259794D01*
X85636306Y-57259226D01*
X85035345Y-57507538D01*
X84575154Y-57966927D01*
X84325794Y-58567453D01*
X84325226Y-59217694D01*
X80521043Y-59217694D01*
X81061500Y-50914325D01*
X81271538Y-51422655D01*
X81730927Y-51882846D01*
X82331453Y-52132206D01*
X82981694Y-52132774D01*
X83582655Y-51884462D01*
X84042846Y-51425073D01*
X84292206Y-50824547D01*
X84292774Y-50174306D01*
X84044462Y-49573345D01*
X83585073Y-49113154D01*
X82984547Y-48863794D01*
X82334306Y-48863226D01*
X81733345Y-49111538D01*
X81273154Y-49570927D01*
X81125850Y-49925674D01*
X81183160Y-49045196D01*
X81414178Y-48814178D01*
X81633118Y-48486510D01*
X81710000Y-48100000D01*
X81710000Y-44505696D01*
X81883629Y-44332370D01*
X81969949Y-44124488D01*
X82054990Y-44330303D01*
X82447630Y-44723629D01*
X82960900Y-44936757D01*
X83516661Y-44937242D01*
X84030303Y-44725010D01*
X84423629Y-44332370D01*
X84636757Y-43819100D01*
X84637242Y-43263339D01*
X84523972Y-42989202D01*
X110172403Y-42989202D01*
X110393203Y-43359949D01*
X111364953Y-43753367D01*
X112413287Y-43744965D01*
X113342797Y-43359949D01*
X113563597Y-42989202D01*
X111868000Y-41293605D01*
X110172403Y-42989202D01*
X84523972Y-42989202D01*
X84425010Y-42749697D01*
X84032370Y-42356371D01*
X83519100Y-42143243D01*
X82963339Y-42142758D01*
X82449697Y-42354990D01*
X82056371Y-42747630D01*
X81970051Y-42955512D01*
X81885010Y-42749697D01*
X81492370Y-42356371D01*
X80979100Y-42143243D01*
X80423339Y-42142758D01*
X79909697Y-42354990D01*
X79516371Y-42747630D01*
X79430051Y-42955512D01*
X79345010Y-42749697D01*
X78952370Y-42356371D01*
X78439100Y-42143243D01*
X77883339Y-42142758D01*
X77369697Y-42354990D01*
X76976371Y-42747630D01*
X76896605Y-42939727D01*
X76842397Y-42808857D01*
X76600213Y-42739392D01*
X75799605Y-43540000D01*
X76600213Y-44340608D01*
X76842397Y-44271143D01*
X76892509Y-44130682D01*
X76974990Y-44330303D01*
X77150000Y-44505619D01*
X77150000Y-49938148D01*
X77145138Y-49952011D01*
X77146351Y-49973879D01*
X77139992Y-49994836D01*
X76890095Y-52530297D01*
X76819410Y-52600982D01*
X76763729Y-52370389D01*
X76280922Y-52202378D01*
X75770572Y-52231917D01*
X75436271Y-52370389D01*
X75380590Y-52600982D01*
X75278928Y-52499320D01*
X75214090Y-52398559D01*
X75001890Y-52253569D01*
X74750000Y-52202560D01*
X73450000Y-52202560D01*
X73214683Y-52246838D01*
X72998559Y-52385910D01*
X72853569Y-52598110D01*
X72802560Y-52850000D01*
X72802560Y-54150000D01*
X72846838Y-54385317D01*
X72985910Y-54601441D01*
X73198110Y-54746431D01*
X73450000Y-54797440D01*
X74750000Y-54797440D01*
X74985317Y-54753162D01*
X75201441Y-54614090D01*
X75278937Y-54500671D01*
X75380590Y-54399018D01*
X75436271Y-54629611D01*
X75919078Y-54797622D01*
X76429428Y-54768083D01*
X76679758Y-54664393D01*
X75464669Y-66992748D01*
X68955039Y-68620156D01*
X68887140Y-68652232D01*
X68813490Y-68666882D01*
X68710602Y-68735630D01*
X68598716Y-68788485D01*
X68548262Y-68844101D01*
X68485822Y-68885822D01*
X64380414Y-72991230D01*
X63839339Y-72990758D01*
X63325697Y-73202990D01*
X62932371Y-73595630D01*
X62846051Y-73803512D01*
X62761010Y-73597697D01*
X62368370Y-73204371D01*
X61855100Y-72991243D01*
X61299339Y-72990758D01*
X60785697Y-73202990D01*
X60392371Y-73595630D01*
X60306051Y-73803512D01*
X60221010Y-73597697D01*
X60046000Y-73422381D01*
X60046000Y-70324000D01*
X59969118Y-69937490D01*
X59750178Y-69609822D01*
X56839372Y-66699016D01*
X73280590Y-66699016D01*
X73336271Y-66929611D01*
X73819078Y-67097622D01*
X74329428Y-67068083D01*
X74663729Y-66929611D01*
X74719410Y-66699016D01*
X74000000Y-65979605D01*
X73280590Y-66699016D01*
X56839372Y-66699016D01*
X55759434Y-65619078D01*
X72702378Y-65619078D01*
X72731917Y-66129428D01*
X72870389Y-66463729D01*
X73100984Y-66519410D01*
X73820395Y-65800000D01*
X74179605Y-65800000D01*
X74899016Y-66519410D01*
X75129611Y-66463729D01*
X75297622Y-65980922D01*
X75268083Y-65470572D01*
X75129611Y-65136271D01*
X74899016Y-65080590D01*
X74179605Y-65800000D01*
X73820395Y-65800000D01*
X73100984Y-65080590D01*
X72870389Y-65136271D01*
X72702378Y-65619078D01*
X55759434Y-65619078D01*
X55041340Y-64900984D01*
X73280590Y-64900984D01*
X74000000Y-65620395D01*
X74719410Y-64900984D01*
X74663729Y-64670389D01*
X74180922Y-64502378D01*
X73670572Y-64531917D01*
X73336271Y-64670389D01*
X73280590Y-64900984D01*
X55041340Y-64900984D01*
X54915169Y-64774813D01*
X60028974Y-64846838D01*
X60656352Y-64731205D01*
X61191724Y-64384287D01*
X61344881Y-64161916D01*
X61388271Y-64341611D01*
X61871078Y-64509622D01*
X62381428Y-64480083D01*
X62715729Y-64341611D01*
X62771410Y-64111016D01*
X62052000Y-63391605D01*
X62037858Y-63405748D01*
X61858253Y-63226143D01*
X61872395Y-63212000D01*
X62231605Y-63212000D01*
X62951016Y-63931410D01*
X63181611Y-63875729D01*
X63349622Y-63392922D01*
X63320083Y-62882572D01*
X63181611Y-62548271D01*
X62951016Y-62492590D01*
X62231605Y-63212000D01*
X61872395Y-63212000D01*
X61858253Y-63197858D01*
X62037858Y-63018252D01*
X62052000Y-63032395D01*
X62771410Y-62312984D01*
X62715729Y-62082389D01*
X62232922Y-61914378D01*
X61722572Y-61943917D01*
X61388271Y-62082389D01*
X61345532Y-62259385D01*
X61224287Y-62072276D01*
X60698898Y-61710418D01*
X60075026Y-61577162D01*
X45023026Y-61365162D01*
X44732876Y-61418640D01*
X44441266Y-61463432D01*
X44420050Y-61476297D01*
X44395648Y-61480795D01*
X44148056Y-61641233D01*
X43895777Y-61794214D01*
X43881099Y-61814220D01*
X43860276Y-61827713D01*
X43692926Y-62070692D01*
X43518397Y-62308568D01*
X43512492Y-62332668D01*
X43498418Y-62353102D01*
X43436790Y-62641628D01*
X43366578Y-62928184D01*
X43178578Y-67204184D01*
X31870604Y-67204184D01*
X31884382Y-61350000D01*
X72702560Y-61350000D01*
X72702560Y-62650000D01*
X72746838Y-62885317D01*
X72885910Y-63101441D01*
X73098110Y-63246431D01*
X73350000Y-63297440D01*
X74650000Y-63297440D01*
X74885317Y-63253162D01*
X75101441Y-63114090D01*
X75246431Y-62901890D01*
X75297440Y-62650000D01*
X75297440Y-61350000D01*
X75253162Y-61114683D01*
X75114090Y-60898559D01*
X74901890Y-60753569D01*
X74650000Y-60702560D01*
X73350000Y-60702560D01*
X73114683Y-60746838D01*
X72898559Y-60885910D01*
X72753569Y-61098110D01*
X72702560Y-61350000D01*
X31884382Y-61350000D01*
X31896925Y-56021071D01*
X63829000Y-56021071D01*
X63829000Y-57194929D01*
X63930621Y-57705811D01*
X64220012Y-58138917D01*
X64653118Y-58428308D01*
X65164000Y-58529929D01*
X65674882Y-58428308D01*
X66107988Y-58138917D01*
X66164000Y-58055089D01*
X66220012Y-58138917D01*
X66653118Y-58428308D01*
X67164000Y-58529929D01*
X67674882Y-58428308D01*
X68107988Y-58138917D01*
X68179490Y-58031906D01*
X68309815Y-58191790D01*
X68770450Y-58439980D01*
X68830671Y-58450716D01*
X69037000Y-58327374D01*
X69037000Y-56735000D01*
X69291000Y-56735000D01*
X69291000Y-58327374D01*
X69497329Y-58450716D01*
X69557550Y-58439980D01*
X70018185Y-58191790D01*
X70348778Y-57786215D01*
X70499000Y-57285000D01*
X70499000Y-56735000D01*
X69291000Y-56735000D01*
X69037000Y-56735000D01*
X69017000Y-56735000D01*
X69017000Y-56481000D01*
X69037000Y-56481000D01*
X69037000Y-54888626D01*
X69291000Y-54888626D01*
X69291000Y-56481000D01*
X70499000Y-56481000D01*
X70499000Y-55931000D01*
X70348778Y-55429785D01*
X70018185Y-55024210D01*
X69557550Y-54776020D01*
X69497329Y-54765284D01*
X69291000Y-54888626D01*
X69037000Y-54888626D01*
X68830671Y-54765284D01*
X68770450Y-54776020D01*
X68309815Y-55024210D01*
X68179490Y-55184094D01*
X68107988Y-55077083D01*
X67674882Y-54787692D01*
X67164000Y-54686071D01*
X66653118Y-54787692D01*
X66220012Y-55077083D01*
X66164000Y-55160911D01*
X66107988Y-55077083D01*
X65674882Y-54787692D01*
X65164000Y-54686071D01*
X64653118Y-54787692D01*
X64220012Y-55077083D01*
X63930621Y-55510189D01*
X63829000Y-56021071D01*
X31896925Y-56021071D01*
X31923994Y-44520213D01*
X74819392Y-44520213D01*
X74888857Y-44762397D01*
X75412302Y-44949144D01*
X75967368Y-44921362D01*
X76351143Y-44762397D01*
X76420608Y-44520213D01*
X75620000Y-43719605D01*
X74819392Y-44520213D01*
X31923994Y-44520213D01*
X31926791Y-43332302D01*
X74210856Y-43332302D01*
X74238638Y-43887368D01*
X74397603Y-44271143D01*
X74639787Y-44340608D01*
X75440395Y-43540000D01*
X74639787Y-42739392D01*
X74397603Y-42808857D01*
X74210856Y-43332302D01*
X31926791Y-43332302D01*
X31928609Y-42559787D01*
X74819392Y-42559787D01*
X75620000Y-43360395D01*
X76420608Y-42559787D01*
X76351143Y-42317603D01*
X75827698Y-42130856D01*
X75272632Y-42158638D01*
X74888857Y-42317603D01*
X74819392Y-42559787D01*
X31928609Y-42559787D01*
X31933196Y-40610953D01*
X109228633Y-40610953D01*
X109237035Y-41659287D01*
X109622051Y-42588797D01*
X109992798Y-42809597D01*
X111688395Y-41114000D01*
X112047605Y-41114000D01*
X113743202Y-42809597D01*
X114113949Y-42588797D01*
X114499740Y-41635884D01*
X119392293Y-41635884D01*
X119792641Y-42604799D01*
X120393000Y-43206207D01*
X120393000Y-43653995D01*
X120392999Y-43654000D01*
X120517457Y-44279688D01*
X120871880Y-44810120D01*
X122141880Y-46080119D01*
X122144038Y-46081561D01*
X122370927Y-46308846D01*
X122670133Y-46433087D01*
X122672312Y-46434543D01*
X122674860Y-46435050D01*
X122971453Y-46558206D01*
X123295431Y-46558489D01*
X123298000Y-46559000D01*
X123300546Y-46558493D01*
X123621694Y-46558774D01*
X123921120Y-46435054D01*
X123923688Y-46434543D01*
X123925846Y-46433101D01*
X124222655Y-46310462D01*
X124451945Y-46081572D01*
X124454119Y-46080119D01*
X124455559Y-46077964D01*
X124682846Y-45851073D01*
X124807087Y-45551867D01*
X124808543Y-45549688D01*
X124809050Y-45547140D01*
X124932206Y-45250547D01*
X124932489Y-44926569D01*
X124933000Y-44924000D01*
X124932493Y-44921454D01*
X124932774Y-44600306D01*
X124809054Y-44300880D01*
X124808543Y-44298312D01*
X124807101Y-44296154D01*
X124684462Y-43999345D01*
X124455574Y-43770057D01*
X124454119Y-43767880D01*
X123777424Y-43091185D01*
X124260754Y-42608698D01*
X124662792Y-41640483D01*
X124663707Y-40592116D01*
X124263359Y-39623201D01*
X123522698Y-38881246D01*
X122554483Y-38479208D01*
X121506116Y-38478293D01*
X120537201Y-38878641D01*
X119795246Y-39619302D01*
X119393208Y-40587517D01*
X119392293Y-41635884D01*
X114499740Y-41635884D01*
X114507367Y-41617047D01*
X114498965Y-40568713D01*
X114113949Y-39639203D01*
X113743202Y-39418403D01*
X112047605Y-41114000D01*
X111688395Y-41114000D01*
X109992798Y-39418403D01*
X109622051Y-39639203D01*
X109228633Y-40610953D01*
X31933196Y-40610953D01*
X31936425Y-39238798D01*
X110172403Y-39238798D01*
X111868000Y-40934395D01*
X113563597Y-39238798D01*
X113342797Y-38868051D01*
X112371047Y-38474633D01*
X111322713Y-38483035D01*
X110393203Y-38868051D01*
X110172403Y-39238798D01*
X31936425Y-39238798D01*
X31948674Y-34035208D01*
X33051931Y-33815756D01*
X33238408Y-33738514D01*
X33307872Y-33709741D01*
X34477572Y-32928172D01*
X114332538Y-32928172D01*
X114737709Y-33908761D01*
X115487293Y-34659655D01*
X116467173Y-35066536D01*
X117528172Y-35067462D01*
X118508761Y-34662291D01*
X119259655Y-33912707D01*
X119666536Y-32932827D01*
X119667462Y-31871828D01*
X119262291Y-30891239D01*
X118512707Y-30140345D01*
X117532827Y-29733464D01*
X116471828Y-29732538D01*
X115491239Y-30137709D01*
X114740345Y-30887293D01*
X114333464Y-31867173D01*
X114332538Y-32928172D01*
X34477572Y-32928172D01*
X34929989Y-32625877D01*
X35125877Y-32429989D01*
X36209742Y-30807872D01*
X36299904Y-30590200D01*
X36315756Y-30551931D01*
X36471261Y-29770154D01*
X123510653Y-29679232D01*
X123691856Y-30590200D01*
G36*
X76293748Y-53485858D02*
X76279605Y-53500000D01*
X76293748Y-53514142D01*
X76114142Y-53693748D01*
X76100000Y-53679605D01*
X76085858Y-53693748D01*
X75906252Y-53514142D01*
X75920395Y-53500000D01*
X75906252Y-53485858D01*
X76085858Y-53306252D01*
X76100000Y-53320395D01*
X76114142Y-53306252D01*
X76293748Y-53485858D01*
X76293748Y-53485858D01*
G37*
X76293748Y-53485858D02*
X76279605Y-53500000D01*
X76293748Y-53514142D01*
X76114142Y-53693748D01*
X76100000Y-53679605D01*
X76085858Y-53693748D01*
X75906252Y-53514142D01*
X75920395Y-53500000D01*
X75906252Y-53485858D01*
X76085858Y-53306252D01*
X76100000Y-53320395D01*
X76114142Y-53306252D01*
X76293748Y-53485858D01*
M02*
