G04 #@! TF.FileFunction,Soldermask,Top*
%FSLAX46Y46*%
G04 Gerber Fmt 4.6, Leading zero omitted, Abs format (unit mm)*
G04 Created by KiCad (PCBNEW 4.0.4+dfsg1-stable) date Thu Jan 19 16:13:54 2017*
%MOMM*%
%LPD*%
G01*
G04 APERTURE LIST*
%ADD10C,0.200000*%
%ADD11C,1.924000*%
%ADD12R,1.700000X1.700000*%
%ADD13C,1.700000*%
%ADD14C,2.940000*%
%ADD15R,2.940000X2.940000*%
%ADD16C,2.099260*%
%ADD17R,2.099260X2.099260*%
%ADD18C,4.400500*%
%ADD19C,2.398980*%
%ADD20R,2.400000X2.400000*%
%ADD21C,2.400000*%
%ADD22O,1.800000X2.900000*%
%ADD23O,3.900000X1.924000*%
%ADD24O,2.900000X1.800000*%
%ADD25C,7.900000*%
G04 APERTURE END LIST*
D10*
D11*
X44812000Y-69816000D03*
X44812000Y-67276000D03*
X47352000Y-69816000D03*
X47352000Y-67276000D03*
X49892000Y-69816000D03*
X49892000Y-67276000D03*
X52432000Y-69816000D03*
X52432000Y-67276000D03*
D12*
X60706000Y-65532000D03*
D13*
X60706000Y-67532000D03*
D12*
X74422000Y-50038000D03*
D13*
X76422000Y-50038000D03*
D12*
X115000000Y-49000000D03*
D13*
X118800000Y-49000000D03*
D12*
X95104000Y-86834000D03*
D13*
X90104000Y-86834000D03*
D14*
X108056780Y-63976960D03*
D15*
X123296780Y-63976960D03*
D16*
X119488520Y-59145460D03*
D17*
X109328520Y-59145460D03*
D16*
X119488520Y-55589460D03*
D17*
X109328520Y-55589460D03*
D11*
X93834000Y-47210000D03*
X93834000Y-49750000D03*
X93834000Y-52290000D03*
X93834000Y-54830000D03*
X102724000Y-54830000D03*
X102724000Y-52290000D03*
X102724000Y-49750000D03*
X102724000Y-47210000D03*
D18*
X111868000Y-41114000D03*
X122028000Y-41114000D03*
D19*
X123298000Y-44924000D03*
X123298000Y-59924000D03*
X82658000Y-65498000D03*
X82658000Y-50498000D03*
X85960000Y-58894000D03*
X100960000Y-58894000D03*
X100946000Y-62196000D03*
X85946000Y-62196000D03*
D11*
X83240000Y-43540000D03*
X80700000Y-43540000D03*
X78160000Y-43540000D03*
X75620000Y-43540000D03*
X46336000Y-89628000D03*
X48876000Y-89628000D03*
X51416000Y-89628000D03*
X53956000Y-89628000D03*
X56496000Y-89628000D03*
X59036000Y-89628000D03*
X61576000Y-89628000D03*
X64116000Y-89628000D03*
X66656000Y-89628000D03*
X69196000Y-89628000D03*
X71736000Y-89628000D03*
X74276000Y-89628000D03*
X76816000Y-89628000D03*
X79356000Y-89628000D03*
X81896000Y-89628000D03*
X81896000Y-74388000D03*
X79356000Y-74388000D03*
X76816000Y-74388000D03*
X74276000Y-74388000D03*
X71736000Y-74388000D03*
X69196000Y-74388000D03*
X66656000Y-74388000D03*
X64116000Y-74388000D03*
X61576000Y-74388000D03*
X59036000Y-74388000D03*
X56496000Y-74388000D03*
X53956000Y-74388000D03*
X51416000Y-74388000D03*
X48876000Y-74388000D03*
X46336000Y-74388000D03*
D12*
X67056000Y-59436000D03*
D13*
X67056000Y-63236000D03*
D20*
X101092000Y-78740000D03*
D21*
X101092000Y-76200000D03*
X101092000Y-73700000D03*
D20*
X108000000Y-50000000D03*
D21*
X108000000Y-47460000D03*
X108000000Y-44960000D03*
D22*
X62992000Y-53086000D03*
X64992000Y-53086000D03*
X60992000Y-53086000D03*
X92564000Y-72102000D03*
X90564000Y-72102000D03*
X94564000Y-72102000D03*
D23*
X117964000Y-67992000D03*
X117964000Y-94392000D03*
D11*
X83374000Y-111440000D03*
X83374000Y-94200000D03*
X43334000Y-94200000D03*
X43334000Y-111440000D03*
X124840000Y-101290000D03*
X124840000Y-108110000D03*
X94360000Y-108110000D03*
X94360000Y-101290000D03*
D20*
X36068000Y-55118000D03*
D21*
X36068000Y-57658000D03*
X36068000Y-60158000D03*
D24*
X76962000Y-62484000D03*
X76962000Y-64484000D03*
X76962000Y-60484000D03*
D19*
X58674000Y-70612000D03*
X73674000Y-70612000D03*
D25*
X117094000Y-32512000D03*
X34544000Y-77216000D03*
M02*
